<svg xmlns="http://www.w3.org/2000/svg" x="0px" y="0px" width="170.466px" height="170.466px" viewBox="226.774 350.079 170.466 170.466"><path id="f002_1_" d="M382.431,464.334c0,4.734-1.154,9.107-3.463,13.118c-2.309,4.011-5.445,7.175-9.408,9.493c-3.963,2.318-8.286,3.477-12.97,3.477h-56.742c-4.683,0-9.023-1.159-13.019-3.477c-3.996-2.318-7.156-5.482-9.482-9.493c-2.325-4.011-3.488-8.384-3.488-13.118c0-3.485,0.737-6.986,2.211-10.504c-3.996-4.899-5.994-10.701-5.994-17.408c0-3.748,0.721-7.323,2.162-10.726c1.441-3.403,3.39-6.337,5.846-8.803c2.456-2.466,5.379-4.422,8.769-5.868c3.39-1.447,6.952-2.17,10.685-2.17c7.762,0,14.542,3.058,20.339,9.173c4.061-2.301,8.777-3.452,14.149-3.452c7.369,0,13.887,2.293,19.553,6.879s9.301,10.463,10.906,17.63c5.863,1.348,10.652,4.373,14.37,9.074C380.572,452.86,382.431,458.252,382.431,464.334z M373.49,464.334c0-4.406-1.466-8.203-4.397-11.392c-2.931-3.189-6.608-5.047-11.029-5.573l-2.604-0.148c-0.655,0-0.983-0.312-0.983-0.937l-0.344-2.86c-0.721-5.688-3.177-10.447-7.369-14.277c-4.192-3.83-9.105-5.745-14.738-5.745c-5.764,0-10.783,1.923-15.058,5.77c-4.274,3.847-6.673,8.597-7.197,14.252l-0.393,3.058c-0.131,0.592-0.491,0.888-1.081,0.888h-8.45c-4.618,0-8.597,1.677-11.938,5.03c-3.341,3.353-5.011,7.332-5.011,11.934c0,4.767,1.662,8.836,4.986,12.206s7.312,5.055,11.962,5.055h56.742c4.585,0,8.548-1.701,11.889-5.104C371.819,473.088,373.49,469.035,373.49,464.334z M338.364,399.78c0,1.282-0.426,2.384-1.277,3.304l-3.439,3.353c-1.31,0.986-2.424,1.43-3.341,1.332c-1.081,0-2.047-0.452-2.899-1.356c-0.852-0.904-1.277-1.997-1.277-3.279s0.459-2.318,1.376-3.107l3.095-3.452c0.95-0.855,2.014-1.282,3.193-1.282c1.277,0,2.358,0.436,3.242,1.307C337.922,397.471,338.364,398.531,338.364,399.78z M310.361,423.057c-3.635-3.518-7.909-5.277-12.822-5.277c-5.175,0-9.572,1.808-13.191,5.425s-5.429,8.022-5.429,13.217c0,3.288,0.884,6.51,2.653,9.666c5.076-5.03,11.168-7.545,18.275-7.545h1.67C302.828,432.822,305.776,427.66,310.361,423.057z M301.862,395.293c0,1.348-0.409,2.433-1.228,3.255c-0.819,0.822-1.85,1.233-3.095,1.233c-1.343,0-2.424-0.411-3.242-1.233c-0.819-0.822-1.228-1.907-1.228-3.255v-10.751c0-1.249,0.418-2.285,1.253-3.107c0.835-0.822,1.908-1.233,3.218-1.233c1.245,0,2.276,0.411,3.095,1.233c0.819,0.822,1.228,1.858,1.228,3.107V395.293z M272.926,407.375c0,1.348-0.393,2.433-1.179,3.255c-1.114,0.855-2.194,1.282-3.242,1.282c-0.95,0-1.981-0.427-3.095-1.282l-7.516-7.545c-0.852-0.953-1.277-2.071-1.277-3.353c0-1.249,0.426-2.301,1.277-3.156s1.883-1.282,3.095-1.282c1.245,0,2.26,0.427,3.046,1.282l7.713,7.545C272.533,405.073,272.926,406.158,272.926,407.375z M268.75,469.611c0,1.249-0.442,2.351-1.326,3.304l-3.39,3.304c-0.786,0.855-1.801,1.282-3.046,1.282c-1.245,0-2.284-0.436-3.12-1.307c-0.835-0.871-1.253-1.964-1.253-3.279c0-1.184,0.426-2.203,1.277-3.058l3.39-3.403c0.852-0.855,1.85-1.282,2.997-1.282c1.245,0,2.301,0.427,3.169,1.282S268.75,468.361,268.75,469.611z M261.087,436.422c0,1.216-0.458,2.236-1.376,3.058c-0.852,0.855-1.916,1.282-3.193,1.282h-10.71c-1.212,0-2.219-0.411-3.021-1.233c-0.802-0.822-1.204-1.858-1.204-3.107c0-1.249,0.401-2.31,1.204-3.181c0.802-0.871,1.81-1.307,3.021-1.307h10.71c1.245,0,2.317,0.444,3.218,1.332C260.636,434.153,261.087,435.205,261.087,436.422z"/></svg>
