<svg xmlns="http://www.w3.org/2000/svg" x="0px" y="0px" width="170.466px" height="170.466px" viewBox="226.774 350.079 170.466 170.466"><path id="f00d" d="M367.693,435.287c0-1.282-0.442-2.367-1.326-3.255c-0.917-0.855-1.965-1.282-3.144-1.282h-10.71c-1.212,0-2.219,0.444-3.021,1.332c-0.802,0.888-1.204,1.956-1.204,3.205c0,1.249,0.401,2.31,1.204,3.181c0.802,0.871,1.81,1.307,3.021,1.307h10.71c1.212,0,2.26-0.444,3.144-1.332C367.251,437.556,367.693,436.504,367.693,435.287z M352.709,471.731c0-1.216-0.409-2.285-1.228-3.206l-7.713-7.496c-0.786-0.822-1.818-1.233-3.095-1.233c-1.245,0-2.284,0.395-3.12,1.184c-0.835,0.789-1.253,1.792-1.253,3.008c0,1.282,0.426,2.4,1.277,3.353l7.467,7.496c2.129,1.677,4.274,1.677,6.436,0C352.3,473.951,352.709,472.915,352.709,471.731z M352.709,398.893c0-1.216-0.409-2.285-1.228-3.206c-1.015-0.855-2.129-1.282-3.341-1.282c-1.146,0-2.178,0.427-3.095,1.282l-7.467,7.743c-0.852,0.789-1.277,1.825-1.277,3.107c0,1.249,0.418,2.293,1.253,3.132c0.835,0.838,1.875,1.258,3.12,1.258c1.277,0,2.309-0.427,3.095-1.282l7.713-7.496C352.3,401.26,352.709,400.175,352.709,398.893z M339.346,435.287c0-4.899-1.228-9.46-3.685-13.685s-5.789-7.57-9.997-10.036c-4.209-2.466-8.753-3.699-13.633-3.699c-3.668,0-7.189,0.732-10.562,2.195s-6.28,3.419-8.72,5.869c-2.44,2.449-4.381,5.367-5.822,8.753s-2.162,6.921-2.162,10.603c0,4.932,1.22,9.501,3.66,13.71c2.44,4.208,5.756,7.537,9.948,9.986c4.192,2.449,8.745,3.674,13.657,3.674c4.913,0,9.465-1.225,13.657-3.674c4.192-2.449,7.516-5.778,9.973-9.986C338.118,444.789,339.346,440.219,339.346,435.287z M330.454,435.287c0,5.129-1.793,9.51-5.379,13.143c-3.586,3.633-7.934,5.449-13.043,5.449c-5.109,0-9.473-1.816-13.092-5.449s-5.429-8.014-5.429-13.143c0-5.063,1.81-9.386,5.429-12.97c3.619-3.584,7.983-5.375,13.092-5.375c5.076,0,9.416,1.792,13.019,5.375C328.653,425.901,330.454,430.224,330.454,435.287z M316.502,476.17c0-1.249-0.434-2.301-1.302-3.156s-1.924-1.282-3.169-1.282c-1.277,0-2.342,0.427-3.193,1.282c-0.852,0.855-1.277,1.907-1.277,3.156v10.455c0,1.282,0.434,2.367,1.302,3.255c0.868,0.888,1.924,1.332,3.169,1.332s2.301-0.444,3.169-1.332c0.868-0.888,1.302-1.973,1.302-3.255V476.17z M316.502,394.651v-10.751c0-1.216-0.442-2.269-1.326-3.156c-0.884-0.888-1.932-1.332-3.144-1.332c-1.212,0-2.26,0.444-3.144,1.332c-0.884,0.888-1.326,1.94-1.326,3.156v10.751c0,1.216,0.434,2.227,1.302,3.033c0.868,0.805,1.924,1.208,3.169,1.208s2.301-0.403,3.169-1.208S316.502,395.868,316.502,394.651z M287.566,463.989c0-1.216-0.393-2.203-1.179-2.959c-0.786-0.822-1.769-1.233-2.948-1.233c-1.277,0-2.325,0.411-3.144,1.233l-7.664,7.496c-0.852,0.921-1.277,1.989-1.277,3.206c0,1.216,0.426,2.252,1.277,3.107c2.096,1.644,4.192,1.644,6.288,0l7.467-7.496C287.173,466.455,287.566,465.337,287.566,463.989z M287.566,406.536c0-1.315-0.393-2.351-1.179-3.107l-7.467-7.743c-0.917-0.855-1.949-1.282-3.095-1.282c-1.245,0-2.301,0.444-3.169,1.332c-0.868,0.888-1.302,1.94-1.302,3.156c0,1.315,0.426,2.4,1.277,3.255l7.664,7.496c0.95,0.855,1.998,1.282,3.144,1.282c1.179,0,2.162-0.419,2.948-1.258C287.173,408.83,287.566,407.786,287.566,406.536z M275.726,435.287c0-1.249-0.426-2.334-1.277-3.255c-0.852-0.855-1.85-1.282-2.997-1.282h-10.612c-1.212,0-2.268,0.452-3.169,1.356s-1.351,1.964-1.351,3.181c0,1.216,0.45,2.269,1.351,3.156c0.901,0.888,1.957,1.332,3.169,1.332h10.612c1.212,0,2.227-0.436,3.046-1.307S275.726,436.537,275.726,435.287z"/></svg>
