<svg xmlns="http://www.w3.org/2000/svg" x="0px" y="0px" width="170.466px" height="170.466px" viewBox="226.774 350.079 170.466 170.466"><path id="f00e_1_" d="M382.824,448.923c0,5.885-1.744,11.145-5.232,15.781c-3.488,4.636-8,7.726-13.535,9.271l3.439,8.926c0.262,0.756,0.016,1.134-0.737,1.134h-11.152l7.467,22.143h-1.523l-22.844-29.786c-0.197-0.23-0.229-0.468-0.098-0.715c0.131-0.247,0.377-0.37,0.737-0.37h11.496l-13.068-24.46c-0.393-0.756-0.147-1.134,0.737-1.134h15.524c0.491,0,0.901,0.263,1.228,0.789l5.601,15.14c3.766-0.953,6.878-2.984,9.334-6.09s3.685-6.649,3.685-10.627c0-4.438-1.474-8.269-4.421-11.49s-6.632-5.096-11.054-5.622l-2.653-0.148c-0.622,0-1.015-0.247-1.179-0.74l-0.393-3.107c-0.557-5.688-2.956-10.463-7.197-14.326s-9.244-5.795-15.008-5.795c-5.699,0-10.702,1.932-15.008,5.795s-6.755,8.638-7.345,14.326l-0.393,3.107c0,0.592-0.311,0.888-0.933,0.888h-8.45c-4.683,0-8.712,1.685-12.085,5.055s-5.06,7.389-5.06,12.058c0,4.57,1.564,8.54,4.692,11.91c3.128,3.37,6.935,5.17,11.422,5.4c0.688,0,1.032,0.312,1.032,0.937v7.052c0,0.592-0.344,0.888-1.032,0.888c-4.618-0.132-8.851-1.389-12.699-3.773c-3.848-2.384-6.886-5.556-9.113-9.518c-2.227-3.962-3.341-8.26-3.341-12.896c0-3.847,0.753-7.381,2.26-10.603c-3.996-5.063-5.994-10.833-5.994-17.31c0-4.997,1.236-9.625,3.709-13.882c2.473-4.258,5.83-7.627,10.071-10.11c4.241-2.482,8.851-3.723,13.829-3.723c3.766,0,7.426,0.789,10.98,2.367c3.554,1.578,6.624,3.764,9.211,6.559c4.225-2.269,8.974-3.403,14.247-3.403c7.435,0,14.026,2.31,19.774,6.929s9.424,10.529,11.029,17.729c5.797,1.348,10.587,4.405,14.37,9.173C380.933,437.416,382.824,442.841,382.824,448.923z M339.936,501.099c0,0.789-0.278,1.611-0.835,2.466c-0.557,0.855-1.359,1.447-2.407,1.775c-0.59,0.132-1.032,0.197-1.326,0.197c-0.786,0-1.457-0.132-2.014-0.395c-1.114-0.427-1.867-1.43-2.26-3.008l-1.425-5.425c-0.328-1.315-0.18-2.49,0.442-3.526c0.622-1.036,1.556-1.685,2.8-1.948c1.081-0.362,2.162-0.23,3.242,0.395c1.081,0.625,1.818,1.529,2.211,2.712l1.326,5.474C339.854,500.54,339.936,500.967,339.936,501.099z M338.708,384.271c0,1.216-0.442,2.268-1.326,3.156l-3.39,3.452c-0.819,0.822-1.785,1.282-2.898,1.381c-1.081,0.164-2.145-0.23-3.193-1.184c-1.048-0.953-1.572-2.071-1.572-3.353c0-1.216,0.442-2.268,1.326-3.156l3.292-3.452c0.852-0.855,1.9-1.282,3.144-1.282c1.31,0,2.407,0.427,3.292,1.282C338.266,381.969,338.708,383.021,338.708,384.271z M332.911,475.849c0.033,0.855-0.213,1.685-0.737,2.49c-0.524,0.805-1.359,1.373-2.505,1.701c-1.114,0.362-2.203,0.255-3.267-0.321s-1.793-1.553-2.186-2.934l-1.572-5.425c-0.36-1.151-0.221-2.26,0.418-3.329c0.639-1.068,1.58-1.784,2.825-2.145c1.179-0.362,2.301-0.238,3.365,0.37c1.064,0.608,1.777,1.537,2.137,2.786l1.277,5.523C332.829,475.29,332.911,475.718,332.911,475.849z M318.074,484.677c0,0.756-0.18,1.447-0.54,2.071c-0.688,1.118-1.638,1.874-2.849,2.268c-0.59,0.197-1.081,0.296-1.474,0.296c-0.655,0-1.195-0.132-1.621-0.395c-1.048-0.395-1.834-1.447-2.358-3.156l-1.326-5.326c-0.36-1.249-0.246-2.392,0.344-3.427s1.474-1.718,2.653-2.047c1.212-0.362,2.35-0.247,3.414,0.345s1.777,1.479,2.137,2.663l1.474,5.474C318.025,483.904,318.074,484.315,318.074,484.677z M310.902,459.329c0,0.921-0.287,1.8-0.86,2.638c-0.573,0.838-1.433,1.422-2.579,1.751c-0.884,0.296-1.949,0.214-3.193-0.247c-1.048-0.46-1.801-1.463-2.26-3.008l-1.425-5.277c-0.328-1.315-0.188-2.49,0.418-3.526c0.606-1.036,1.531-1.685,2.776-1.948c1.179-0.362,2.293-0.255,3.341,0.321c1.048,0.575,1.752,1.455,2.112,2.638l1.523,5.573C310.852,458.934,310.902,459.296,310.902,459.329z M310.361,407.547c-3.504-3.386-7.778-5.079-12.822-5.079c-5.142,0-9.523,1.8-13.142,5.4c-3.619,3.6-5.429,7.981-5.429,13.143c0,3.452,0.819,6.625,2.456,9.518c5.044-5.063,11.185-7.595,18.423-7.595h1.621C303.009,416.687,305.973,411.558,310.361,407.547z M302.01,379.832c0,1.249-0.434,2.318-1.302,3.205c-0.868,0.888-1.924,1.332-3.169,1.332c-1.245,0-2.284-0.436-3.12-1.307c-0.835-0.871-1.253-1.948-1.253-3.23v-10.849c0-1.282,0.418-2.359,1.253-3.23s1.875-1.307,3.12-1.307c1.245,0,2.301,0.444,3.169,1.332c0.868,0.888,1.302,1.956,1.302,3.205V379.832z M272.779,391.865c0,1.282-0.409,2.334-1.228,3.156c-0.721,0.822-1.679,1.274-2.874,1.356s-2.301-0.37-3.316-1.356l-7.566-7.595c-0.917-0.855-1.376-1.907-1.376-3.156c0-1.249,0.459-2.301,1.376-3.156c0.852-0.921,1.9-1.381,3.144-1.381c1.212,0,2.227,0.46,3.046,1.381l7.566,7.595C272.369,389.531,272.779,390.583,272.779,391.865z M268.701,454.545c0,1.216-0.442,2.268-1.326,3.156l-3.39,3.304c-0.95,0.888-2.031,1.332-3.242,1.332l-0.098,0.099c-1.146,0-2.096-0.477-2.849-1.43c-0.917-0.855-1.376-1.907-1.376-3.156c0-1.216,0.459-2.285,1.376-3.205l3.242-3.255c0.95-0.953,2.014-1.43,3.193-1.43c1.245,0,2.301,0.452,3.169,1.356S268.701,453.296,268.701,454.545z M261.037,421.011c0,1.282-0.459,2.318-1.376,3.107c-0.819,0.921-1.867,1.381-3.144,1.381H245.71c-1.245,0-2.309-0.436-3.193-1.307c-0.884-0.871-1.326-1.932-1.326-3.181c0-1.249,0.434-2.293,1.302-3.132c0.868-0.838,1.941-1.258,3.218-1.258h10.808c1.277,0,2.35,0.419,3.218,1.258C260.603,418.717,261.037,419.761,261.037,421.011z"/></svg>
