<svg xmlns="http://www.w3.org/2000/svg" x="0px" y="0px" width="170.466px" height="170.466px" viewBox="226.774 350.079 170.466 170.466"><path id="f011" d="M371.672,459.378c0-1.315-0.442-2.416-1.326-3.304c-0.917-0.855-1.965-1.282-3.144-1.282h-28.396c-3.865,0-7.164,1.389-9.899,4.167c-2.735,2.778-4.102,6.107-4.102,9.986c0,3.912,1.359,7.241,4.078,9.986c2.718,2.745,6.026,4.118,9.924,4.118s7.222-1.381,9.973-4.142c0.819-0.822,1.228-1.874,1.228-3.156s-0.401-2.342-1.204-3.181c-0.802-0.838-1.859-1.258-3.169-1.258c-1.212,0-2.276,0.427-3.193,1.282c-1.048,1.019-2.26,1.529-3.635,1.529c-1.376,0-2.571-0.501-3.586-1.504s-1.523-2.227-1.523-3.674c0-1.381,0.508-2.573,1.523-3.575s2.211-1.504,3.586-1.504h28.396c1.212,0,2.26-0.436,3.144-1.307C371.23,461.687,371.672,460.627,371.672,459.378z M371.672,443.4c0-1.282-0.442-2.367-1.326-3.255c-0.917-0.855-1.965-1.282-3.144-1.282h-55.268c-1.376,0-2.571-0.51-3.586-1.529c-1.015-1.019-1.523-2.236-1.523-3.649c0-1.414,0.508-2.622,1.523-3.625c1.015-1.003,2.211-1.504,3.586-1.504c1.441,0,2.637,0.493,3.586,1.479c0.95,0.789,2.063,1.184,3.341,1.184c1.277,0,2.317-0.403,3.12-1.208c0.802-0.805,1.204-1.849,1.204-3.132c0-1.315-0.393-2.384-1.179-3.205c-2.653-2.663-6.01-3.995-10.071-3.995c-3.897,0-7.214,1.364-9.948,4.093c-2.735,2.729-4.102,6.033-4.102,9.912c0,3.879,1.367,7.192,4.102,9.937c2.735,2.745,6.051,4.118,9.948,4.118h55.268c1.245,0,2.301-0.419,3.169-1.258C371.238,445.644,371.672,444.616,371.672,443.4z M360.422,430.972c0,0.427-0.278,0.641-0.835,0.641h-7.566c-0.426,0-0.802-0.263-1.13-0.789c-1.179-2.86-3.013-5.227-5.502-7.101c-2.489-1.874-5.273-2.926-8.352-3.156l-2.751-0.395c-0.688,0-1.032-0.296-1.032-0.888l-0.393-2.712c-0.557-5.688-2.956-10.463-7.197-14.326c-4.241-3.863-9.244-5.795-15.008-5.795c-5.797,0-10.824,1.915-15.082,5.745c-4.258,3.83-6.681,8.622-7.271,14.375l-0.393,3.107c0,0.592-0.295,0.888-0.884,0.888h-8.499c-4.749,0-8.818,1.677-12.208,5.03c-3.39,3.353-5.085,7.381-5.085,12.082c0,4.701,1.695,8.729,5.085,12.082c3.39,3.353,7.459,5.03,12.208,5.03h36.207c0.655,0,0.983,0.296,0.983,0.888v7.299c0,0.592-0.328,0.888-0.983,0.888h-36.207c-4.749,0-9.129-1.167-13.142-3.501c-4.012-2.334-7.189-5.515-9.531-9.543c-2.342-4.027-3.513-8.408-3.513-13.143c0-4.767,1.171-9.156,3.513-13.167c2.342-4.011,5.519-7.184,9.531-9.518c4.012-2.334,8.393-3.501,13.142-3.501h1.621c1.638-7.003,5.298-12.74,10.98-17.211c5.682-4.471,12.192-6.707,19.528-6.707c7.402,0,13.952,2.31,19.651,6.929c5.699,4.619,9.318,10.529,10.857,17.729c4.487,1.052,8.466,3.214,11.938,6.485c3.472,3.271,5.879,7.143,7.222,11.614v0.197C360.389,430.693,360.422,430.841,360.422,430.972z"/></svg>
