<svg xmlns="http://www.w3.org/2000/svg" x="0px" y="0px" width="170.466px" height="170.466px" viewBox="226.774 350.079 170.466 170.466"><path id="f012" d="M374.374,460.759c0-1.282-0.442-2.351-1.326-3.205c-0.884-0.855-1.981-1.282-3.292-1.282h-47.015c-1.245,0-2.276,0.419-3.095,1.258c-0.819,0.838-1.228,1.915-1.228,3.23c0,1.249,0.418,2.293,1.253,3.132c0.835,0.838,1.859,1.258,3.07,1.258h47.015c1.31,0,2.407-0.419,3.292-1.258C373.932,463.052,374.374,462.008,374.374,460.759z M360.569,444.682c0-1.249-0.475-2.301-1.425-3.156c-0.753-0.789-1.785-1.184-3.095-1.184h-47.162c-1.212,0-2.219,0.411-3.021,1.233c-0.802,0.822-1.204,1.858-1.204,3.107s0.401,2.318,1.204,3.205c0.802,0.888,1.81,1.332,3.021,1.332h47.162c1.212,0,2.268-0.452,3.169-1.356S360.569,445.898,360.569,444.682z M357.327,432.402c0,0.493-0.295,0.74-0.884,0.74h-7.467c-0.491,0-0.901-0.247-1.228-0.74c-1.179-2.86-2.997-5.227-5.453-7.101c-2.456-1.874-5.207-2.926-8.253-3.156l-2.849-0.345c-0.59,0-0.884-0.312-0.884-0.937l-0.344-2.712c-0.59-5.721-3.021-10.488-7.295-14.301s-9.293-5.721-15.058-5.721c-5.699,0-10.644,1.882-14.836,5.647s-6.649,8.507-7.369,14.227l-0.393,3.107c0,0.559-0.311,0.838-0.933,0.838h-8.401c-4.749,0-8.802,1.677-12.159,5.03c-3.357,3.353-5.036,7.414-5.036,12.181c0,4.603,1.703,8.606,5.109,12.008c3.406,3.403,7.435,5.104,12.085,5.104h36.109c0.622,0,0.933,0.296,0.933,0.888v7.052c0,0.625-0.311,0.937-0.933,0.937h-36.109c-3.537,0-6.919-0.682-10.145-2.047c-3.226-1.364-5.994-3.214-8.303-5.548s-4.151-5.104-5.527-8.31c-1.376-3.205-2.063-6.567-2.063-10.085c0-4.734,1.154-9.099,3.463-13.093c2.309-3.995,5.461-7.151,9.457-9.469c3.996-2.318,8.368-3.477,13.117-3.477h1.621c1.703-7.069,5.379-12.847,11.029-17.334c5.65-4.488,12.077-6.732,19.282-6.732c7.435,0,14.009,2.326,19.725,6.978c5.715,4.652,9.342,10.595,10.882,17.828c4.52,1.019,8.483,3.148,11.889,6.386s5.781,7.126,7.123,11.663v0.099C357.294,432.139,357.327,432.271,357.327,432.402z M351.333,477.033c0-1.282-0.459-2.334-1.376-3.156c-0.786-0.822-1.818-1.233-3.095-1.233H299.75c-1.277,0-2.35,0.419-3.218,1.258s-1.302,1.882-1.302,3.132s0.442,2.318,1.326,3.205c0.884,0.888,1.949,1.332,3.193,1.332h47.113c1.212,0,2.26-0.444,3.144-1.332C350.891,479.351,351.333,478.282,351.333,477.033z"/></svg>
