<svg xmlns="http://www.w3.org/2000/svg" x="0px" y="0px" width="170.466px" height="170.466px" viewBox="226.774 350.079 170.466 170.466"><path id="f013_1_" d="M370.223,451.191c0-5.227-1.621-9.871-4.864-13.932s-7.402-6.666-12.478-7.816c-1.343-6.181-4.454-11.236-9.334-15.164c-4.88-3.929-10.497-5.893-16.851-5.893c-6.19,0-11.717,1.915-16.58,5.745c-4.864,3.83-8.016,8.737-9.457,14.721h-1.425c-6.157,0-11.414,2.178-15.77,6.534c-4.356,4.356-6.534,9.625-6.534,15.806s2.178,11.466,6.534,15.855s9.613,6.584,15.77,6.584h48.636c3.013,0,5.903-0.592,8.671-1.775c2.767-1.184,5.15-2.778,7.148-4.784c1.998-2.005,3.586-4.397,4.765-7.175C369.633,457.118,370.223,454.216,370.223,451.191z M362.608,451.191c0,4.011-1.441,7.455-4.323,10.332c-2.882,2.877-6.354,4.315-10.415,4.315h-48.636c-4.061,0-7.533-1.438-10.415-4.315c-2.882-2.877-4.323-6.321-4.323-10.332s1.441-7.447,4.323-10.307c2.882-2.86,6.354-4.29,10.415-4.29h7.271c0.524,0,0.786-0.263,0.786-0.789l0.344-2.564c0.524-4.964,2.596-9.082,6.215-12.353c3.619-3.271,7.901-4.907,12.847-4.907c4.945,0,9.244,1.644,12.896,4.932s5.707,7.397,6.165,12.329l0.344,2.219c0,0.526,0.278,0.789,0.835,0.789l2.358,0.345c3.766,0.329,6.927,1.89,9.482,4.685C361.331,444.074,362.608,447.378,362.608,451.191z M316.232,405.328c0.524,0.493,0.393,0.855-0.393,1.085c-2.26,0.986-4.143,1.956-5.65,2.91c-0.59,0.164-0.983,0.115-1.179-0.148c-3.177-3.025-6.878-4.537-11.103-4.537s-7.885,1.422-10.98,4.266s-4.823,6.353-5.183,10.529l-0.491,3.353h-7.418c-3.406,0-6.337,1.225-8.794,3.674c-2.456,2.449-3.685,5.367-3.685,8.753c0,3.156,1.081,5.901,3.242,8.236c2.162,2.334,4.831,3.682,8.008,4.044c0.524,0,0.786,0.279,0.786,0.838v5.967c0,0.559-0.262,0.838-0.786,0.838c-5.273-0.329-9.727-2.416-13.363-6.263c-3.635-3.847-5.453-8.4-5.453-13.66c0-5.556,1.957-10.299,5.871-14.227c3.914-3.929,8.638-5.893,14.173-5.893h0.786c1.376-5.26,4.25-9.592,8.622-12.995c4.372-3.403,9.26-5.104,14.664-5.104C305.309,396.994,311.417,399.772,316.232,405.328z"/></svg>
