<svg xmlns="http://www.w3.org/2000/svg" x="0px" y="0px" width="170.466px" height="170.466px" viewBox="226.774 350.079 170.466 170.466"><path id="f014_1_" d="M376.88,460.857c0-1.282-0.442-2.351-1.326-3.205c-0.884-0.855-1.981-1.282-3.292-1.282h-97.812c-1.31,0-2.383,0.419-3.218,1.258c-0.835,0.838-1.253,1.915-1.253,3.23c0,1.216,0.434,2.236,1.302,3.058s1.924,1.233,3.169,1.233h97.812c1.31,0,2.407-0.411,3.292-1.233C376.437,463.093,376.88,462.074,376.88,460.857z M363.173,444.337c0-1.282-0.459-2.334-1.376-3.156c-0.786-0.789-1.818-1.184-3.095-1.184h-97.862c-1.212,0-2.227,0.419-3.046,1.258c-0.819,0.838-1.228,1.866-1.228,3.082c0,1.249,0.409,2.31,1.228,3.181c0.819,0.871,1.834,1.307,3.046,1.307h97.862c1.245,0,2.301-0.444,3.169-1.332C362.739,446.605,363.173,445.553,363.173,444.337z M362.485,431.811c0,0.46-0.262,0.69-0.786,0.69h-7.516c-0.328,0-0.671-0.279-1.032-0.838c-1.245-2.729-3.103-4.964-5.576-6.707c-2.473-1.742-5.183-2.729-8.131-2.959l-2.898-0.395c-0.59,0-0.884-0.312-0.884-0.937l-0.344-2.614c-0.557-5.688-2.956-10.43-7.197-14.227c-4.241-3.797-9.211-5.696-14.91-5.696c-5.666,0-10.603,1.874-14.812,5.622c-4.209,3.748-6.608,8.449-7.197,14.104l-0.393,3.008c0,0.592-0.344,0.888-1.032,0.888h-8.352c-3.373,0-6.444,0.904-9.211,2.712c-2.768,1.808-4.823,4.208-6.165,7.2c-0.36,0.559-0.721,0.838-1.081,0.838h-7.516c-0.622,0-0.868-0.395-0.737-1.184c1.539-5.392,4.585-9.797,9.138-13.216c4.552-3.419,9.744-5.129,15.573-5.129h1.67c1.736-7.003,5.396-12.732,10.98-17.186c5.584-4.455,11.962-6.682,19.135-6.682c7.336,0,13.854,2.31,19.553,6.929s9.351,10.512,10.955,17.68c4.454,1.052,8.36,3.173,11.717,6.362c3.357,3.189,5.691,7.003,7.001,11.441v-0.197C362.469,431.416,362.485,431.58,362.485,431.811z M354.035,476.983c0-1.249-0.459-2.285-1.376-3.107c-0.786-0.789-1.834-1.184-3.144-1.184h-97.911c-1.245,0-2.301,0.411-3.169,1.233s-1.302,1.841-1.302,3.058c0,1.249,0.442,2.318,1.326,3.206c0.884,0.888,1.932,1.332,3.144,1.332h97.911c1.212,0,2.268-0.452,3.169-1.356S354.035,478.2,354.035,476.983z"/></svg>
