<svg xmlns="http://www.w3.org/2000/svg" x="0px" y="0px" width="170.466px" height="170.466px" viewBox="226.774 350.079 170.466 170.466"><path id="f015" d="M366.293,431.835c0,7.003-2.432,13.019-7.295,18.049s-10.8,7.71-17.809,8.038c-0.59,0-0.884-0.296-0.884-0.888v-7.052c0-0.592,0.295-0.888,0.884-0.888c4.487-0.23,8.303-2.022,11.447-5.375c3.144-3.353,4.716-7.315,4.716-11.885c0-4.34-1.474-8.121-4.421-11.343s-6.599-5.096-10.955-5.622l-2.8-0.148c-0.688,0-1.032-0.329-1.032-0.986l-0.295-2.811c-0.557-5.688-2.956-10.447-7.197-14.277c-4.241-3.83-9.228-5.745-14.959-5.745c-5.699,0-10.677,1.915-14.935,5.745c-4.258,3.83-6.681,8.589-7.271,14.277l-0.393,3.058c0,0.592-0.311,0.888-0.933,0.888h-8.45c-4.651,0-8.679,1.677-12.085,5.03c-3.406,3.353-5.109,7.332-5.109,11.934c0,4.57,1.58,8.532,4.741,11.885c3.161,3.353,6.968,5.145,11.422,5.375c0.688,0,1.032,0.296,1.032,0.888v7.052c0,0.592-0.344,0.888-1.032,0.888c-4.552-0.132-8.745-1.381-12.577-3.748c-3.832-2.367-6.853-5.532-9.064-9.493c-2.211-3.962-3.316-8.244-3.316-12.847c0-4.701,1.163-9.033,3.488-12.995s5.486-7.085,9.482-9.37s8.335-3.427,13.019-3.427h1.67c1.703-7.036,5.379-12.789,11.029-17.26c5.65-4.471,12.077-6.707,19.282-6.707c7.369,0,13.919,2.293,19.651,6.879c5.732,4.586,9.4,10.463,11.005,17.63c5.797,1.348,10.571,4.381,14.321,9.099C364.418,420.402,366.293,425.786,366.293,431.835z M337.75,469.709c-0.491,1.118-1.294,1.923-2.407,2.416c-1.048,0.526-2.137,0.559-3.267,0.099c-1.13-0.46-1.908-1.249-2.334-2.367c-0.524-1.151-0.565-2.277-0.123-3.378c0.442-1.101,1.236-1.866,2.383-2.293c1.048-0.559,2.121-0.608,3.218-0.148s1.908,1.282,2.432,2.466C338.143,467.359,338.175,468.427,337.75,469.709z M334.458,454.865c0,0.822-0.27,1.619-0.811,2.392c-0.54,0.773-1.351,1.34-2.432,1.701c-1.015,0.592-2.096,0.616-3.242,0.074c-1.146-0.542-1.916-1.586-2.309-3.132l-4.716-17.803c-0.328-1.315-0.188-2.49,0.418-3.526c0.606-1.036,1.531-1.669,2.776-1.899c0.426-0.099,0.852-0.148,1.277-0.148c0.852,0,1.679,0.263,2.481,0.789c0.802,0.526,1.367,1.299,1.695,2.318l4.618,17.852C334.376,454.241,334.458,454.701,334.458,454.865z M324.682,484.257c0,0.625-0.098,1.134-0.295,1.529c-0.458,1.151-1.245,1.94-2.358,2.367c-0.491,0.263-1.064,0.395-1.719,0.395c-0.328,0-0.852-0.099-1.572-0.296c-1.146-0.427-1.973-1.216-2.481-2.367c-0.508-1.151-0.499-2.301,0.025-3.452s1.302-1.956,2.334-2.416c1.032-0.46,2.121-0.46,3.267,0c0.983,0.427,1.695,1.052,2.137,1.874C324.461,482.712,324.682,483.501,324.682,484.257z M320.85,470.548c0,1.94-1.097,3.222-3.292,3.847c-0.59,0.132-1.015,0.197-1.277,0.197c-0.786,0-1.457-0.132-2.014-0.395c-1.081-0.427-1.818-1.43-2.211-3.008l-8.745-33.091c-0.328-1.249-0.221-2.384,0.319-3.403c0.54-1.019,1.4-1.693,2.579-2.022c0.426-0.099,0.901-0.148,1.425-0.148c0.852,0,1.695,0.263,2.53,0.789c0.835,0.526,1.351,1.299,1.548,2.318l8.941,33.337C320.784,469.693,320.85,470.219,320.85,470.548z M302.869,468.131c0,0.625-0.131,1.184-0.393,1.677c-0.426,1.019-1.195,1.792-2.309,2.318c-0.59,0.23-1.195,0.345-1.818,0.345c-0.328,0-0.852-0.099-1.572-0.296c-1.114-0.427-1.916-1.2-2.407-2.318c-0.393-1.151-0.377-2.252,0.049-3.304c0.426-1.052,1.163-1.841,2.211-2.367c1.179-0.559,2.317-0.608,3.414-0.148c1.097,0.46,1.908,1.282,2.432,2.466C302.738,466.997,302.869,467.54,302.869,468.131z M299.087,454.619c0,0.756-0.278,1.545-0.835,2.367c-0.557,0.822-1.343,1.397-2.358,1.726c-0.819,0.164-1.294,0.247-1.425,0.247c-0.491,0-1.13-0.181-1.916-0.542c-1.048-0.493-1.752-1.414-2.112-2.762l-4.716-17.556c-0.098-0.888-0.147-1.348-0.147-1.381c0-0.822,0.27-1.627,0.811-2.416c0.54-0.789,1.335-1.332,2.383-1.627c0.459-0.099,0.917-0.148,1.376-0.148c0.852,0,1.67,0.255,2.456,0.764c0.786,0.51,1.326,1.29,1.621,2.342l4.716,17.655L299.087,454.619z"/></svg>
