<svg xmlns="http://www.w3.org/2000/svg" x="0px" y="0px" width="170.466px" height="170.466px" viewBox="226.774 350.079 170.466 170.466"><path id="f017" d="M366.268,431.391c0,6.937-2.44,12.921-7.32,17.951c-4.88,5.03-10.792,7.66-17.735,7.89c-0.622,0-0.933-0.296-0.933-0.888v-7.003c0-0.625,0.311-0.937,0.933-0.937c4.421-0.23,8.221-2.014,11.398-5.351c3.177-3.337,4.765-7.225,4.765-11.663c0-4.405-1.482-8.244-4.446-11.515c-2.964-3.271-6.624-5.088-10.98-5.449l-2.751-0.395c-0.655,0-0.983-0.312-0.983-0.937l-0.393-2.614c-0.524-5.753-2.907-10.57-7.148-14.449c-4.241-3.879-9.244-5.819-15.008-5.819c-5.666,0-10.628,1.923-14.886,5.77c-4.258,3.847-6.698,8.597-7.32,14.252l-0.344,3.058c0,0.625-0.328,0.937-0.983,0.937h-8.401c-4.716,0-8.761,1.693-12.134,5.079c-3.373,3.386-5.06,7.414-5.06,12.082c0,4.438,1.58,8.326,4.741,11.663s6.968,5.121,11.422,5.351c0.688,0,1.032,0.312,1.032,0.937v7.003c0,0.592-0.344,0.888-1.032,0.888c-6.976-0.23-12.88-2.852-17.71-7.866c-4.831-5.014-7.246-11.006-7.246-17.975c0-4.701,1.163-9.049,3.488-13.044c2.325-3.995,5.486-7.151,9.482-9.469s8.335-3.477,13.019-3.477h1.621c1.736-7.036,5.42-12.797,11.054-17.285s12.053-6.732,19.258-6.732c7.369,0,13.919,2.301,19.651,6.904c5.732,4.603,9.4,10.471,11.005,17.606c5.895,1.512,10.693,4.611,14.394,9.296C364.418,419.876,366.268,425.276,366.268,431.391z M337.922,468.329c0,0.888-0.287,1.775-0.86,2.663s-1.4,1.496-2.481,1.825c-1.212,0.362-2.325,0.296-3.341-0.197s-1.703-1.479-2.063-2.959l-0.737-3.206c-0.262-1.184-0.098-2.293,0.491-3.329c0.59-1.036,1.49-1.734,2.702-2.096c1.179-0.362,2.301-0.23,3.365,0.395s1.76,1.562,2.088,2.811l0.737,3.107C337.889,467.54,337.922,467.868,337.922,468.329z M333.942,453.09c0,1.118-0.442,2.121-1.326,3.008c-0.819,0.888-1.801,1.332-2.948,1.332c-1.245,0-2.293-0.419-3.144-1.258c-0.852-0.838-1.277-1.866-1.277-3.082c0-1.216,0.426-2.244,1.277-3.082s1.9-1.258,3.144-1.258c1.212,0,2.227,0.411,3.046,1.233S333.942,451.841,333.942,453.09z M330.749,441.107c0.065,0.822-0.172,1.619-0.712,2.392c-0.54,0.773-1.384,1.34-2.53,1.701c-1.081,0.329-2.162,0.206-3.242-0.37s-1.801-1.471-2.162-2.688l-1.474-4.734c-0.393-1.282-0.278-2.425,0.344-3.427s1.572-1.685,2.849-2.047c1.146-0.362,2.252-0.247,3.316,0.345c1.064,0.592,1.777,1.463,2.137,2.614l1.277,4.833c0,0.099,0.033,0.304,0.098,0.616C330.716,440.654,330.749,440.909,330.749,441.107z M324.657,484.751c0,0.921-0.27,1.792-0.811,2.614c-0.54,0.822-1.384,1.397-2.53,1.726c-0.426,0.099-0.868,0.148-1.326,0.148c-2.227,0-3.603-1.069-4.127-3.206l-0.737-3.107c-0.328-1.348-0.18-2.548,0.442-3.6c0.622-1.052,1.539-1.693,2.751-1.923c1.114-0.362,2.211-0.238,3.292,0.37c1.081,0.608,1.801,1.504,2.162,2.688l0.737,3.107C324.608,484.027,324.657,484.422,324.657,484.751z M320.58,469.463c0,1.151-0.442,2.17-1.326,3.058c-0.852,0.855-1.85,1.282-2.997,1.282c-1.245,0-2.276-0.411-3.095-1.233s-1.228-1.858-1.228-3.107c0-1.216,0.409-2.236,1.228-3.058c0.819-0.822,1.85-1.233,3.095-1.233s2.276,0.411,3.095,1.233C320.17,467.227,320.58,468.246,320.58,469.463z M317.288,457.529c0.065,0.789-0.164,1.611-0.688,2.466c-0.524,0.855-1.31,1.381-2.358,1.578c-1.212,0.329-2.325,0.23-3.341-0.296s-1.736-1.512-2.162-2.959l-1.425-4.734c-0.36-1.151-0.237-2.252,0.368-3.304s1.531-1.759,2.776-2.121c1.146-0.362,2.26-0.222,3.341,0.419c1.081,0.641,1.801,1.57,2.162,2.786l1.179,4.734C317.239,456.526,317.288,457.003,317.288,457.529z M302.845,468.822c0,0.855-0.27,1.693-0.811,2.515s-1.351,1.397-2.432,1.726c-0.164,0-0.401,0.033-0.712,0.099c-0.311,0.066-0.549,0.099-0.712,0.099c-2.129,0-3.455-1.151-3.979-3.452l-0.737-3.156c-0.36-1.118-0.246-2.219,0.344-3.304c0.59-1.085,1.474-1.808,2.653-2.17c1.31-0.329,2.497-0.189,3.562,0.419c1.064,0.608,1.777,1.537,2.137,2.786l0.491,3.107c0,0.132,0.033,0.345,0.098,0.641C302.812,468.427,302.845,468.657,302.845,468.822z M298.964,453.287c0,1.184-0.442,2.186-1.326,3.008c-0.786,0.855-1.785,1.282-2.997,1.282c-1.245,0-2.276-0.411-3.095-1.233c-0.819-0.822-1.228-1.841-1.228-3.058c0-1.249,0.409-2.285,1.228-3.107s1.85-1.233,3.095-1.233c1.245,0,2.276,0.411,3.095,1.233S298.964,452.038,298.964,453.287z M295.77,441.107c0,0.888-0.287,1.734-0.86,2.54c-0.573,0.806-1.433,1.373-2.579,1.701c-0.098,0-0.311,0.033-0.639,0.099c-0.328,0.066-0.573,0.099-0.737,0.099c-0.524,0-1.146-0.164-1.867-0.493c-1.114-0.592-1.834-1.512-2.162-2.762l-1.277-4.734c-0.328-1.184-0.197-2.293,0.393-3.329c0.59-1.036,1.474-1.734,2.653-2.096c1.212-0.362,2.325-0.263,3.341,0.296c1.015,0.559,1.703,1.447,2.063,2.663l1.474,4.784c0,0.132,0.033,0.337,0.098,0.616C295.738,440.77,295.77,440.975,295.77,441.107z"/></svg>
