<svg xmlns="http://www.w3.org/2000/svg" x="0px" y="0px" width="170.466px" height="170.466px" viewBox="226.774 350.079 170.466 170.466"><path id="f01a_1_" d="M366.489,432.106c0-6.082-1.9-11.49-5.699-16.225c-3.799-4.734-8.663-7.775-14.591-9.123c-1.539-7.233-5.158-13.175-10.857-17.828c-5.699-4.652-12.249-6.978-19.651-6.978c-7.304,0-13.797,2.236-19.479,6.707c-5.682,4.471-9.392,10.258-11.127,17.359h-1.769c-4.716,0-9.056,1.159-13.019,3.477c-3.963,2.318-7.083,5.482-9.359,9.493s-3.414,8.384-3.414,13.118c0,7.036,2.399,13.069,7.197,18.099c4.798,5.03,10.685,7.66,17.661,7.89c0.622,0,0.933-0.296,0.933-0.888v-7.052c0-0.592-0.311-0.888-0.933-0.888c-4.421-0.362-8.204-2.195-11.348-5.499c-3.144-3.304-4.716-7.192-4.716-11.663c0-4.701,1.67-8.745,5.011-12.132c3.341-3.386,7.336-5.079,11.987-5.079h8.548c0.622,0,0.999-0.312,1.13-0.937l0.393-3.008c0.36-3.748,1.58-7.143,3.66-10.184c2.08-3.041,4.757-5.425,8.032-7.151c3.275-1.726,6.812-2.589,10.611-2.589c5.764,0,10.767,1.915,15.008,5.745c4.241,3.83,6.64,8.606,7.197,14.326l0.344,2.86c0,0.493,0.278,0.74,0.835,0.74l2.751,0.395c4.421,0.362,8.114,2.17,11.078,5.425c2.964,3.255,4.446,7.118,4.446,11.589c0,4.57-1.548,8.507-4.643,11.811c-3.095,3.304-6.886,5.088-11.373,5.351c-0.622,0-0.933,0.296-0.933,0.888v7.052c0,0.592,0.311,0.888,0.933,0.888c3.439-0.164,6.714-0.953,9.825-2.367c3.111-1.414,5.789-3.271,8.032-5.573c2.243-2.301,4.02-5.022,5.33-8.162S366.489,435.559,366.489,432.106z M338.094,467.712c0-0.164-0.033-0.395-0.098-0.69s-0.098-0.493-0.098-0.592l-1.425-5.425c-0.36-1.184-1.056-2.079-2.088-2.688c-1.032-0.608-2.153-0.732-3.365-0.37c-1.179,0.362-2.08,1.06-2.702,2.096s-0.753,2.162-0.393,3.378l1.277,5.326c0.688,2.301,2.014,3.452,3.979,3.452c0.131,0,0.287-0.008,0.467-0.025c0.18-0.016,0.377-0.041,0.59-0.074c0.213-0.033,0.385-0.049,0.516-0.049c1.114-0.329,1.949-0.929,2.505-1.8C337.815,469.381,338.094,468.534,338.094,467.712z M331.167,442.364c0-0.132-0.025-0.329-0.074-0.592c-0.049-0.263-0.074-0.427-0.074-0.493l-1.572-5.523c-0.328-1.019-0.884-1.8-1.67-2.342c-0.786-0.542-1.605-0.814-2.456-0.814c-0.131,0-0.27,0.008-0.418,0.025c-0.147,0.016-0.311,0.041-0.491,0.074c-0.18,0.033-0.319,0.049-0.418,0.049c-1.179,0.362-2.072,1.06-2.677,2.096c-0.606,1.036-0.729,2.162-0.368,3.378l1.277,5.277c0.36,1.447,1.064,2.474,2.112,3.082c1.048,0.608,2.178,0.649,3.39,0.123c1.146-0.329,2.006-0.921,2.579-1.775C330.88,444.074,331.167,443.219,331.167,442.364z M324.731,484.183c0-0.164-0.033-0.386-0.098-0.666c-0.065-0.279-0.098-0.485-0.098-0.616l-1.523-5.227c-0.328-1.249-1.023-2.195-2.088-2.836c-1.064-0.641-2.203-0.781-3.414-0.419c-1.179,0.362-2.063,1.077-2.653,2.145c-0.59,1.069-0.704,2.211-0.344,3.427l1.326,5.474c0.557,2.137,1.949,3.206,4.176,3.206c0.262,0,0.688-0.066,1.277-0.197c1.146-0.197,2.006-0.732,2.579-1.603C324.444,486,324.731,485.104,324.731,484.183z M317.706,459.082c0-0.296-0.065-0.74-0.197-1.332l-1.425-5.425c-0.36-1.184-1.073-2.079-2.137-2.688s-2.203-0.732-3.414-0.37c-1.179,0.329-2.063,1.011-2.653,2.047c-0.59,1.036-0.688,2.178-0.295,3.427l1.277,5.227c0.655,2.367,1.916,3.551,3.783,3.551c0.229,0,0.77-0.099,1.621-0.296c1.146-0.23,2.006-0.748,2.579-1.553C317.419,460.866,317.706,460.003,317.706,459.082z M302.918,467.909c0-0.362-0.049-0.789-0.147-1.282l-1.474-5.227c-0.36-1.249-1.073-2.195-2.137-2.836c-1.064-0.641-2.17-0.797-3.316-0.469c-1.212,0.362-2.137,1.077-2.776,2.145c-0.639,1.068-0.794,2.178-0.467,3.329l1.523,5.573c0.524,2.137,1.9,3.206,4.127,3.206c0.491,0,0.95-0.049,1.376-0.148c1.048-0.197,1.85-0.732,2.407-1.603C302.591,469.726,302.886,468.83,302.918,467.909z M295.697,442.857c0-0.164-0.082-0.625-0.246-1.381l-1.572-5.425c-0.197-1.118-0.704-1.948-1.523-2.49c-0.819-0.542-1.67-0.781-2.555-0.715c-0.229-0.033-0.655,0.016-1.277,0.148c-1.146,0.263-2.047,0.937-2.702,2.022c-0.622,0.888-0.753,2.022-0.393,3.403l1.277,5.425c0.688,2.269,2.014,3.403,3.979,3.403c0.328,0,0.917-0.099,1.769-0.296c1.081-0.329,1.891-0.879,2.432-1.652C295.427,444.526,295.697,443.712,295.697,442.857z"/></svg>
