<svg xmlns="http://www.w3.org/2000/svg" x="0px" y="0px" width="170.466px" height="170.466px" viewBox="226.774 350.079 170.466 170.466"><path id="f01e_4_" d="M366.391,431.416c0,5.819-1.736,11.03-5.207,15.633c-3.472,4.603-7.975,7.743-13.51,9.419l3.439,8.827c0.164,0.756-0.082,1.134-0.737,1.134h-11.152l5.158,22.636h-1.474l-20.535-30.23c-0.197-0.23-0.221-0.469-0.074-0.715c0.147-0.247,0.401-0.37,0.761-0.37h11.398l-12.97-24.411c-0.36-0.756-0.115-1.134,0.737-1.134h15.426c0.491,0,0.901,0.263,1.228,0.789l5.601,15.09c3.734-0.953,6.829-2.992,9.285-6.115c2.456-3.123,3.685-6.641,3.685-10.553c0-4.373-1.482-8.17-4.446-11.392c-2.964-3.222-6.64-5.096-11.029-5.622l-2.751-0.345c-0.688,0-1.032-0.312-1.032-0.937l-0.344-2.663c-0.557-5.688-2.956-10.455-7.197-14.301c-4.241-3.847-9.228-5.77-14.959-5.77c-5.699,0-10.685,1.923-14.959,5.77s-6.722,8.614-7.345,14.301l-0.344,3.058c0,0.592-0.311,0.888-0.933,0.888h-8.401c-4.749,0-8.81,1.669-12.184,5.006c-3.373,3.337-5.06,7.34-5.06,12.008c0,4.471,1.556,8.343,4.667,11.614c3.111,3.271,6.96,5.088,11.545,5.449c0.688,0,1.032,0.312,1.032,0.937v7.2c0,0.592-0.344,0.888-1.032,0.888c-6.976-0.23-12.896-2.877-17.76-7.94c-4.864-5.063-7.295-11.112-7.295-18.148c0-4.734,1.163-9.099,3.488-13.093c2.325-3.995,5.494-7.151,9.506-9.469c4.012-2.318,8.376-3.477,13.092-3.477h1.621c1.736-7.003,5.429-12.723,11.078-17.162c5.65-4.438,12.077-6.658,19.282-6.658c7.402,0,13.969,2.301,19.7,6.904c5.732,4.603,9.4,10.488,11.005,17.655c5.797,1.348,10.579,4.381,14.345,9.099S366.391,425.334,366.391,431.416z M323.699,482.507c0,2.071-1.015,3.419-3.046,4.044c-0.065,0-0.262,0.025-0.59,0.074s-0.573,0.074-0.737,0.074c-0.884,0-1.744-0.255-2.579-0.764c-0.835-0.51-1.4-1.356-1.695-2.54l-11.791-45.715c-0.328-1.249-0.213-2.384,0.344-3.403c0.557-1.019,1.425-1.71,2.604-2.071c0.884-0.099,1.343-0.148,1.376-0.148c0.852,0,1.678,0.263,2.481,0.789c0.802,0.526,1.351,1.315,1.646,2.367l11.84,45.863C323.65,481.537,323.699,482.014,323.699,482.507z M301.936,466.381c0,0.69-0.18,1.348-0.54,1.973c-0.721,1.151-1.605,1.923-2.653,2.318c-0.557,0.164-1.081,0.247-1.572,0.247s-1.048-0.132-1.67-0.395c-1.081-0.46-1.818-1.463-2.211-3.008l-7.566-29.836c-0.164-0.756-0.246-1.233-0.246-1.43c0-0.789,0.278-1.578,0.835-2.367c0.557-0.789,1.359-1.348,2.407-1.677c0.884-0.099,1.343-0.148,1.376-0.148c0.884,0,1.703,0.255,2.456,0.764c0.753,0.51,1.277,1.307,1.572,2.392l7.664,29.984c0,0.099,0.025,0.288,0.074,0.567C301.911,466.044,301.936,466.249,301.936,466.381z"/></svg>
