<svg xmlns="http://www.w3.org/2000/svg" x="0px" y="0px" width="170.466px" height="170.466px" viewBox="226.774 350.079 170.466 170.466"><path id="f02e" d="M349.074,435.312c0-5.03-0.983-9.847-2.948-14.449c-1.965-4.603-4.61-8.573-7.934-11.91s-7.287-6-11.889-7.989c-4.602-1.989-9.408-2.984-14.419-2.984h-5.994c-0.819,0.23-1.228,0.723-1.228,1.479l-0.246,4.636c-0.197,6.674-2.587,12.362-7.173,17.063c-4.585,4.701-10.153,7.184-16.703,7.447l-4.323,0.345c-0.852,0-1.277,0.411-1.277,1.233v5.129c-0.033,6.74,1.597,12.978,4.888,18.715c3.292,5.737,7.779,10.274,13.461,13.611c5.682,3.337,11.881,5.006,18.595,5.006c5.109,0,9.965-0.986,14.566-2.959s8.548-4.627,11.84-7.964s5.912-7.307,7.86-11.91C348.099,445.208,349.074,440.375,349.074,435.312z M339.494,435.312c0,4.011-0.794,7.792-2.383,11.343c-1.588,3.551-3.668,6.526-6.239,8.926c-2.571,2.4-5.519,4.299-8.843,5.696s-6.706,2.096-10.145,2.096c-3.046,0-6.116-0.6-9.211-1.8s-5.969-2.877-8.622-5.03c-2.653-2.153-4.937-4.907-6.853-8.26c-1.916-3.353-3.152-7.019-3.709-10.997c8.548-1.775,15.401-5.449,20.56-11.022c5.158-5.573,8.131-12.123,8.917-19.652c4.945,0.263,9.473,1.792,13.584,4.586c4.11,2.795,7.295,6.337,9.555,10.627S339.494,430.611,339.494,435.312z"/></svg>
