<svg xmlns="http://www.w3.org/2000/svg" x="0px" y="0px" width="170.466px" height="170.466px" viewBox="226.774 350.079 170.466 170.466"><path id="f04e_2_" d="M332.911,429.69c0-1.348-0.663-3.123-1.99-5.326c-1.326-2.203-2.596-4.027-3.807-5.474c-0.328-0.395-0.737-0.879-1.228-1.455s-0.77-0.896-0.835-0.962l-1.916,2.268c-1.441,1.611-2.767,3.485-3.979,5.622c-1.212,2.137-1.818,3.912-1.818,5.326c0,2.17,0.745,4.027,2.235,5.573c1.49,1.545,3.316,2.318,5.478,2.318c2.162,0,4.012-0.773,5.551-2.318C332.141,433.717,332.911,431.86,332.911,429.69z M316.551,451.537c0-1.512-0.426-3.279-1.277-5.301c-0.852-2.022-1.9-3.888-3.144-5.597c-2.391-3.222-4.683-5.901-6.878-8.038c-0.229-0.164-0.688-0.592-1.376-1.282l-1.326,1.282c-2.031,1.94-4.34,4.603-6.927,7.989c-1.343,1.808-2.432,3.699-3.267,5.671c-0.835,1.973-1.253,3.732-1.253,5.277c0,3.616,1.228,6.649,3.685,9.099c2.456,2.449,5.486,3.674,9.089,3.674c3.537,0,6.534-1.249,8.99-3.748C315.323,458.063,316.551,455.055,316.551,451.537z M308.593,415.241c0-2.269-1.752-5.244-5.257-8.926l-1.326,1.479c-0.983,1.151-1.867,2.441-2.653,3.871c-0.786,1.43-1.179,2.622-1.179,3.575c0,1.447,0.499,2.655,1.498,3.625c0.999,0.97,2.219,1.455,3.66,1.455c1.507,0,2.759-0.485,3.758-1.455C308.093,417.895,308.593,416.687,308.593,415.241z"/></svg>
