<svg xmlns="http://www.w3.org/2000/svg" x="0px" y="0px" width="170.466px" height="170.466px" viewBox="226.774 350.079 170.466 170.466"><path id="f056" d="M348.484,438.296c0,2.334-1.212,4.323-3.635,5.967c-4.421,3.123-11.103,4.685-20.044,4.685c-4.028,0-7.762-0.345-11.201-1.036c-3.635-0.789-6.599-2.022-8.892-3.699s-3.439-3.649-3.439-5.918c0-0.69,0.131-1.381,0.393-2.071c-4.651-1.151-8.303-2.704-10.955-4.66s-3.979-4.2-3.979-6.732c0-0.625,0.098-1.299,0.295-2.022c-7.664-2.729-11.496-6.411-11.496-11.047c0-2.959,1.67-5.589,5.011-7.89c6.55-4.373,16.146-6.559,28.789-6.559c5.961,0,11.365,0.526,16.212,1.578c5.207,1.052,9.424,2.729,12.65,5.03c3.226,2.301,4.839,4.915,4.839,7.841c0,1.742-0.54,3.337-1.621,4.784c3.963,2.268,5.944,5.03,5.944,8.285c0,2.532-1.228,4.751-3.685,6.658C346.879,433.364,348.484,435.633,348.484,438.296z M346.47,453.435c0,2.466-1.515,4.397-4.544,5.795c-3.03,1.397-6.837,2.096-11.422,2.096c-4.651,0-8.499-0.699-11.545-2.096c-3.046-1.397-4.569-3.329-4.569-5.795c0-0.921,0.295-1.693,0.884-2.318c0.59-0.625,1.343-0.937,2.26-0.937c0.753,0,1.425,0.263,2.014,0.789c0.59,0.526,0.966,1.167,1.13,1.923c0.655,0.526,1.883,1.011,3.685,1.455c1.801,0.444,3.848,0.666,6.141,0.666c3.701,0,6.698-0.526,8.99-1.578c-0.524-0.526-0.811-1.2-0.86-2.022c-0.049-0.822,0.123-1.512,0.516-2.071c0.524-0.723,1.204-1.167,2.039-1.332c0.835-0.164,1.613-0.016,2.334,0.444C345.487,449.77,346.47,451.43,346.47,453.435z M342.196,438.296c0-0.033-0.213-0.23-0.639-0.592c-0.295-0.296-0.925-0.674-1.891-1.134c-0.966-0.46-2.039-0.855-3.218-1.184l-0.393-0.197c-5.437,1.808-11.774,2.712-19.012,2.712c-3.177,0-6.059-0.181-8.646-0.542l-0.884,0.789c0.295,0.526,0.999,1.085,2.112,1.677c1.343,0.723,3.423,1.364,6.239,1.923c2.817,0.559,5.797,0.838,8.941,0.838c3.144,0,6.133-0.279,8.966-0.838s4.937-1.2,6.313-1.923C341.197,439.331,341.901,438.822,342.196,438.296z M341.803,466.652c0,2.137-1.204,3.781-3.611,4.932c-2.407,1.151-5.396,1.726-8.966,1.726c-3.635,0-6.681-0.575-9.138-1.726c-2.456-1.151-3.685-2.795-3.685-4.932c0-0.855,0.311-1.611,0.933-2.268c0.622-0.658,1.359-0.986,2.211-0.986c1.572,0,2.604,0.806,3.095,2.416c1.31,0.822,3.504,1.233,6.583,1.233c2.686,0,4.831-0.411,6.436-1.233c0.491-1.611,1.523-2.416,3.095-2.416c0.852,0,1.572,0.312,2.162,0.937C341.508,464.959,341.803,465.731,341.803,466.652z M341.115,424.832c0-0.263-0.164-0.575-0.491-0.937c-0.819-1.019-2.407-2.005-4.765-2.959c-6.452,3.452-15.295,5.178-26.529,5.178c-5.732,0-11.119-0.526-16.163-1.578v0.296c0,0.493,0.311,1.003,0.933,1.529c1.376,1.216,3.93,2.367,7.664,3.452c4.061,1.216,9.154,1.825,15.279,1.825c6.157,0,11.267-0.608,15.328-1.825c3.897-1.085,6.501-2.236,7.811-3.452C340.804,425.868,341.115,425.358,341.115,424.832z M336.743,411.764c0-0.592-0.393-1.249-1.179-1.973c-1.507-1.414-4.503-2.778-8.99-4.093c-4.782-1.414-10.53-2.121-17.244-2.121c-6.747,0-12.544,0.707-17.391,2.121c-4.52,1.315-7.516,2.679-8.99,4.093c-0.753,0.756-1.13,1.414-1.13,1.973s0.377,1.184,1.13,1.874c1.474,1.414,4.471,2.795,8.99,4.142c4.847,1.414,10.644,2.121,17.391,2.121c6.714,0,12.462-0.707,17.244-2.121c4.52-1.315,7.516-2.696,8.99-4.142C336.35,412.947,336.743,412.323,336.743,411.764z"/></svg>
