<svg xmlns="http://www.w3.org/2000/svg" x="0px" y="0px" width="170.466px" height="170.466px" viewBox="226.774 350.079 170.466 170.466"><path id="f063" d="M352.218,442.808c0-1.184-0.409-2.162-1.228-2.934s-1.932-1.159-3.341-1.159H317.73c-1.408,0-2.522,0.386-3.341,1.159s-1.228,1.751-1.228,2.934c0,1.447,0.401,2.573,1.204,3.378c0.802,0.805,1.924,1.208,3.365,1.208h29.919c1.408,0,2.522-0.403,3.341-1.208S352.218,444.254,352.218,442.808z M352.218,411.69c0-1.184-0.409-2.153-1.228-2.91s-1.932-1.134-3.341-1.134h-15.524c-1.408,0-2.53,0.378-3.365,1.134s-1.253,1.726-1.253,2.91c0,1.414,0.418,2.54,1.253,3.378c0.835,0.838,1.957,1.258,3.365,1.258h15.524c1.408,0,2.522-0.411,3.341-1.233C351.808,414.271,352.218,413.137,352.218,411.69z M347.059,458.342c0-1.151-0.483-2.211-1.449-3.181c-0.966-0.97-2.022-1.455-3.169-1.455c-1.343,0-2.432,0.469-3.267,1.405c-0.835,0.937-1.253,2.014-1.253,3.23c0,1.447,0.401,2.581,1.204,3.403c0.802,0.822,1.908,1.233,3.316,1.233c1.212,0,2.284-0.427,3.218-1.282C346.593,460.841,347.059,459.723,347.059,458.342z M339.592,427.175c0-1.216-0.385-2.293-1.155-3.23c-0.77-0.937-1.711-1.405-2.825-1.405c-1.376,0-2.489,0.469-3.341,1.405c-0.852,0.937-1.277,2.014-1.277,3.23c0,1.447,0.409,2.581,1.228,3.403c0.819,0.822,1.949,1.233,3.39,1.233c1.179,0,2.137-0.419,2.874-1.258C339.224,429.715,339.592,428.589,339.592,427.175z M334.434,458.342c0-1.216-0.426-2.293-1.277-3.23c-0.852-0.937-1.965-1.405-3.341-1.405h-20.093l-4.618,4.636c0,1.381,0.467,2.499,1.4,3.353s2.006,1.282,3.218,1.282h20.093c1.441,0,2.571-0.419,3.39-1.258C334.024,460.882,334.434,459.756,334.434,458.342z M327.507,427.175c0-1.151-0.483-2.211-1.449-3.181c-0.966-0.97-2.022-1.455-3.169-1.455h-20.093c-1.376,0-2.481,0.469-3.316,1.405c-0.835,0.937-1.253,2.014-1.253,3.23c0,1.447,0.409,2.581,1.228,3.403c0.819,0.822,1.932,1.233,3.341,1.233h20.093c1.212,0,2.284-0.427,3.218-1.282C327.04,429.674,327.507,428.556,327.507,427.175z M323.527,411.69c0-1.184-0.418-2.153-1.253-2.91c-0.835-0.756-1.957-1.134-3.365-1.134h-29.919c-1.179,0-2.243,0.395-3.193,1.184c-0.95,0.789-1.425,1.742-1.425,2.86c0,1.381,0.467,2.499,1.4,3.353c0.933,0.855,2.006,1.282,3.218,1.282h29.919c1.441,0,2.571-0.419,3.39-1.258C323.118,414.23,323.527,413.104,323.527,411.69z M309.723,442.808c0-1.118-0.475-2.079-1.425-2.885s-2.014-1.208-3.193-1.208c-1.179,0-2.243,0.403-3.193,1.208s-1.425,1.767-1.425,2.885c0,1.381,0.467,2.49,1.4,3.329c0.933,0.838,2.006,1.258,3.218,1.258c1.212,0,2.284-0.419,3.218-1.258C309.256,445.298,309.723,444.189,309.723,442.808z M301.666,458.342c0-1.216-0.418-2.293-1.253-3.23c-0.835-0.937-1.941-1.405-3.316-1.405h-9.776c-1.376,0-2.481,0.46-3.316,1.381c-0.835,0.921-1.253,2.005-1.253,3.255c0,1.447,0.401,2.581,1.204,3.403c0.802,0.822,1.924,1.233,3.365,1.233h9.776c1.408,0,2.522-0.411,3.341-1.233C301.256,460.923,301.666,459.789,301.666,458.342z M297.097,442.808c0-1.118-0.475-2.079-1.425-2.885s-2.014-1.208-3.193-1.208h-16.065c-1.146,0-2.096,0.395-2.849,1.184c-0.753,0.789-1.13,1.759-1.13,2.91c0,1.414,0.368,2.532,1.105,3.353c0.737,0.822,1.695,1.233,2.874,1.233h16.065c1.212,0,2.284-0.419,3.218-1.258C296.63,445.298,297.097,444.189,297.097,442.808z M294.788,427.175c0-1.151-0.483-2.211-1.449-3.181c-0.966-0.97-2.022-1.455-3.169-1.455h-10.268c-1.114,0-2.063,0.477-2.849,1.43c-0.786,0.953-1.179,2.022-1.179,3.206c0,1.414,0.377,2.54,1.13,3.378c0.753,0.838,1.719,1.258,2.898,1.258h10.268c1.212,0,2.284-0.427,3.218-1.282C294.321,429.674,294.788,428.556,294.788,427.175z M280.443,411.69c0-1.151-0.385-2.112-1.154-2.885c-0.77-0.773-1.728-1.159-2.874-1.159c-1.408,0-2.53,0.378-3.365,1.134c-0.835,0.756-1.253,1.726-1.253,2.91c0,1.414,0.418,2.54,1.253,3.378c0.835,0.838,1.957,1.258,3.365,1.258c1.179,0,2.145-0.419,2.899-1.258C280.066,414.23,280.443,413.104,280.443,411.69z"/></svg>
