<svg xmlns="http://www.w3.org/2000/svg" x="0px" y="0px" width="170.466px" height="170.466px" viewBox="226.774 350.079 170.466 170.466"><path id="f073" d="M332.483,435.532v-0.099c0.033-0.427,0.025-1.069-0.025-1.923s-0.221-2.268-0.516-4.241c-0.295-1.973-0.729-3.995-1.302-6.066c-0.573-2.071-1.466-4.438-2.677-7.101c-1.212-2.663-2.645-5.195-4.299-7.595c-1.654-2.4-3.84-4.841-6.559-7.323c-2.718-2.482-5.748-4.66-9.089-6.534c-0.819-0.46-1.679-0.559-2.579-0.296s-1.564,0.805-1.99,1.627c-0.459,0.822-0.565,1.693-0.319,2.614s0.778,1.611,1.597,2.071c6.878,3.781,12.167,9.123,15.868,16.027c-2.817-1.315-5.666-1.973-8.548-1.973c-5.633,0-10.464,2.014-14.493,6.041c-4.028,4.027-6.043,8.869-6.043,14.523c0,0.427,0.008,0.847,0.025,1.258c0.016,0.411,0.09,1.315,0.221,2.712s0.328,2.745,0.59,4.044c0.262,1.299,0.671,2.926,1.228,4.882c0.557,1.956,1.22,3.814,1.99,5.573c0.77,1.759,1.785,3.69,3.046,5.795c1.261,2.104,2.669,4.069,4.225,5.893c1.556,1.825,3.447,3.666,5.674,5.523s4.651,3.526,7.271,5.005c0.491,0.296,1.032,0.444,1.621,0.444c1.343,0,2.358-0.608,3.046-1.825c0.459-0.822,0.557-1.685,0.295-2.589s-0.802-1.57-1.621-1.997c-7.042-3.945-12.38-9.353-16.016-16.225c2.849,1.348,5.83,2.022,8.941,2.022c3.635,0,7.017-0.904,10.145-2.712s5.617-4.274,7.467-7.397C331.509,442.567,332.451,439.181,332.483,435.532z M323.591,435.285c0,3.222-1.13,5.967-3.39,8.236s-4.978,3.403-8.155,3.403c-2.98,0-5.576-0.995-7.787-2.984s-3.48-4.463-3.807-7.422l-0.049-1.184c0-0.132-0.016-0.214-0.049-0.247c0.033-3.156,1.187-5.827,3.464-8.014c2.276-2.186,5.019-3.279,8.229-3.279c2.915,0,5.461,0.953,7.639,2.86s3.447,4.29,3.807,7.151l0.098,1.332V435.285z"/></svg>
