<svg xmlns="http://www.w3.org/2000/svg" x="0px" y="0px" width="170.466px" height="170.466px" viewBox="226.774 350.079 170.466 170.466"><path id="f075" d="M345.363,441.992c5.895-12.625,4.995-24.526-2.702-35.704c-5.371-7.792-13.641-12.559-24.809-14.301c-0.852-0.23-1.801-0.378-2.849-0.444h-3.292c-15.262,0.46-26.447,7.266-33.554,20.417c-3.341,6.214-4.176,13.069-2.505,20.564c1.343,5.951,3.586,11.507,6.73,16.669c6.78,10.586,13.772,19.134,20.977,25.644c0.393,0.395,0.917,0.855,1.572,1.381c2.424,1.841,4.659,2.795,6.706,2.86c2.047,0.066,4.331-0.723,6.853-2.367c1.507-0.888,2.8-1.923,3.881-3.107C332.655,463.083,340.319,452.546,345.363,441.992z M344.773,430.354c-0.098,0.559-0.262,1.332-0.491,2.318c-0.229,0.986-0.393,1.693-0.491,2.121c-1.474,6.608-4.503,11.745-9.089,15.411s-10.284,5.827-17.096,6.485c-1.507,0.164-2.399,0.107-2.677-0.173s-0.434-1.192-0.467-2.737c0.065-0.427,0.147-1.11,0.246-2.047c0.098-0.937,0.197-1.619,0.295-2.047c1.31-7.069,4.634-12.214,9.973-15.436c0.95-0.592,2.039-1.184,3.267-1.775c1.228-0.592,2.293-1.068,3.193-1.43c0.901-0.362,2.104-0.83,3.611-1.405c1.507-0.575,2.604-1.011,3.292-1.307c0.819-0.329,2.211-0.526,4.176-0.592C344.315,427.74,345.068,428.611,344.773,430.354z M309.156,453.483c0.131,1.611,0.025,2.589-0.319,2.934c-0.344,0.345-1.302,0.419-2.874,0.222c-1.998-0.23-4.094-0.608-6.288-1.134c-5.601-1.414-10.186-4.406-13.756-8.975c-1.769-2.17-3.12-4.521-4.053-7.052s-1.76-5.54-2.481-9.025c-0.262-1.184-0.205-1.997,0.172-2.441c0.377-0.444,1.138-0.584,2.284-0.419c3.079,0.526,5.863,1.233,8.352,2.121c6.026,2.269,10.611,5.318,13.756,9.148C307.092,442.691,308.828,447.565,309.156,453.483z"/></svg>
