<svg xmlns="http://www.w3.org/2000/svg" x="0px" y="0px" width="170.466px" height="170.466px" viewBox="226.774 350.079 170.466 170.466"><path id="f076_5_" d="M351.53,435.386c0-1.019-0.344-1.89-1.032-2.614s-1.523-1.085-2.505-1.085c-1.015,0-1.867,0.362-2.555,1.085s-1.032,1.595-1.032,2.614c0,0.986,0.352,1.825,1.056,2.515c0.704,0.69,1.548,1.036,2.53,1.036s1.818-0.353,2.505-1.06C351.186,437.169,351.53,436.339,351.53,435.386z M341.164,435.386c0-1.019-0.344-1.89-1.032-2.614c-0.688-0.723-1.523-1.085-2.505-1.085h-16.9l11.938-11.984c0.721-0.658,1.081-1.488,1.081-2.49s-0.36-1.866-1.081-2.589c-0.721-0.723-1.572-1.085-2.555-1.085c-0.983,0-1.834,0.362-2.555,1.085l-11.889,11.934v-16.866c0-1.019-0.36-1.89-1.081-2.614c-0.721-0.723-1.588-1.085-2.604-1.085c-0.983,0-1.818,0.362-2.505,1.085c-0.688,0.723-1.032,1.595-1.032,2.614v17.014l-11.987-12.082c-0.721-0.723-1.564-1.085-2.53-1.085c-0.966,0-1.826,0.362-2.579,1.085c-0.622,0.723-0.933,1.586-0.933,2.589s0.311,1.833,0.933,2.49l11.938,11.984h-16.9c-0.95,0-1.777,0.362-2.481,1.085s-1.056,1.595-1.056,2.614c0,0.953,0.352,1.784,1.056,2.49c0.704,0.707,1.531,1.06,2.481,1.06h16.949l-11.987,12.033c-0.622,0.658-0.933,1.479-0.933,2.466c0,0.986,0.311,1.841,0.933,2.564c0.753,0.723,1.613,1.085,2.579,1.085c0.966,0,1.81-0.362,2.53-1.085l11.987-12.082v17.063c0,1.019,0.344,1.882,1.032,2.589s1.523,1.06,2.505,1.06c1.015,0,1.883-0.353,2.604-1.06c0.721-0.707,1.081-1.57,1.081-2.589v-16.915L327.556,456c0.721,0.723,1.572,1.085,2.555,1.085c0.983,0,1.834-0.362,2.555-1.085c0.721-0.723,1.081-1.578,1.081-2.564c0-0.986-0.36-1.808-1.081-2.466l-12.036-12.033h16.998c0.983,0,1.818-0.353,2.505-1.06C340.82,437.169,341.164,436.339,341.164,435.386z M341.066,460.857c0-0.97-0.36-1.816-1.081-2.54c-0.655-0.723-1.482-1.085-2.481-1.085s-1.859,0.362-2.579,1.085c-0.721,0.723-1.081,1.57-1.081,2.54c0,0.97,0.36,1.816,1.081,2.54c0.721,0.723,1.58,1.085,2.579,1.085s1.826-0.362,2.481-1.085C340.706,462.674,341.066,461.827,341.066,460.857z M341.066,409.767c0-0.97-0.36-1.816-1.081-2.54c-0.655-0.723-1.482-1.085-2.481-1.085s-1.859,0.362-2.579,1.085c-0.721,0.723-1.081,1.57-1.081,2.54c0,0.97,0.36,1.833,1.081,2.589c0.721,0.723,1.58,1.085,2.579,1.085s1.826-0.362,2.481-1.085C340.706,411.599,341.066,410.736,341.066,409.767z M315.667,471.386c0-0.953-0.36-1.784-1.081-2.49c-0.721-0.707-1.588-1.06-2.604-1.06c-0.983,0-1.818,0.353-2.505,1.06c-0.688,0.707-1.032,1.537-1.032,2.49c0,1.019,0.344,1.882,1.032,2.589s1.523,1.06,2.505,1.06c1.015,0,1.883-0.353,2.604-1.06C315.307,473.268,315.667,472.405,315.667,471.386z M315.667,399.238c0-1.019-0.36-1.882-1.081-2.589c-0.721-0.707-1.588-1.06-2.604-1.06c-0.983,0-1.818,0.353-2.505,1.06s-1.032,1.57-1.032,2.589c0,0.953,0.344,1.784,1.032,2.49s1.523,1.06,2.505,1.06c1.015,0,1.883-0.353,2.604-1.06C315.307,401.021,315.667,400.191,315.667,399.238z M290.17,460.857c0-0.97-0.36-1.816-1.081-2.54c-0.655-0.723-1.482-1.085-2.481-1.085c-0.999,0-1.859,0.362-2.579,1.085c-0.721,0.723-1.081,1.57-1.081,2.54c0,0.97,0.36,1.816,1.081,2.54c0.721,0.723,1.58,1.085,2.579,1.085c0.999,0,1.826-0.362,2.481-1.085C289.81,462.674,290.17,461.827,290.17,460.857z M290.17,409.767c0-0.97-0.36-1.816-1.081-2.54c-0.655-0.723-1.482-1.085-2.481-1.085c-0.999,0-1.859,0.362-2.579,1.085c-0.721,0.723-1.081,1.57-1.081,2.54c0,0.97,0.36,1.833,1.081,2.589c0.721,0.723,1.58,1.085,2.579,1.085c0.999,0,1.826-0.362,2.481-1.085C289.81,411.599,290.17,410.736,290.17,409.767z M279.657,435.386c0-1.019-0.352-1.89-1.056-2.614s-1.564-1.085-2.579-1.085c-0.95,0-1.777,0.362-2.481,1.085s-1.056,1.595-1.056,2.614c0,0.953,0.352,1.784,1.056,2.49c0.704,0.707,1.531,1.06,2.481,1.06c1.015,0,1.875-0.353,2.579-1.06C279.305,437.169,279.657,436.339,279.657,435.386z"/></svg>
