<svg xmlns="http://www.w3.org/2000/svg" x="0px" y="0px" width="170.466px" height="170.466px" viewBox="226.774 350.079 170.466 170.466"><path id="f07d" d="M369.928,425.153c0-4.866-1.515-9.222-4.544-13.069c-3.03-3.847-6.853-6.296-11.471-7.348c-1.343-5.786-4.315-10.537-8.917-14.252s-9.866-5.573-15.794-5.573c-5.764,0-10.914,1.816-15.451,5.449c-4.536,3.633-7.476,8.277-8.818,13.932h-1.376c-5.764,0-10.685,2.03-14.763,6.09c-4.078,4.06-6.116,8.984-6.116,14.77c0,0.033,0.008,0.099,0.025,0.197s0.025,0.197,0.025,0.296c-3.93,4.208-5.895,9.206-5.895,14.992c0,3.978,0.991,7.669,2.972,11.071c1.981,3.403,4.651,6.09,8.008,8.063c3.357,1.973,7.001,2.959,10.931,2.959c5.044,0,9.523-1.562,13.436-4.685c3.914-3.123,6.493-7.085,7.738-11.885h29.919c5.6-0.23,10.349-2.375,14.247-6.436S369.928,430.808,369.928,425.153z M362.805,425.153c0,3.682-1.269,6.879-3.807,9.592s-5.592,4.151-9.162,4.315h-29.722c-0.197-0.132-0.393-0.197-0.59-0.197h-5.109c-0.164,0-0.311,0.066-0.442,0.197h-11.25c-3.57-0.164-6.632-1.603-9.187-4.315c-2.555-2.712-3.832-5.91-3.832-9.592c0-3.715,1.376-6.929,4.127-9.641s5.994-4.069,9.727-4.069h6.78c0.491,0,0.737-0.247,0.737-0.74l0.344-2.466c0.459-4.57,2.407-8.408,5.846-11.515s7.418-4.66,11.938-4.66c4.651,0,8.679,1.545,12.085,4.636s5.339,6.937,5.797,11.54l0.295,2.466c0,0.493,0.278,0.74,0.835,0.74h2.112c3.537,0.395,6.501,1.89,8.892,4.488C361.609,418.528,362.805,421.602,362.805,425.153z M330.331,472.545c1.31-1.71,1.31-3.419,0-5.129l-5.944-6.066c-0.721-0.625-1.621-0.937-2.702-0.937c-0.983,0-1.785,0.312-2.407,0.937s-0.933,1.447-0.933,2.466c0,1.052,0.311,1.89,0.933,2.515l5.994,6.214c0.655,0.658,1.507,0.986,2.555,0.986C328.841,473.531,329.676,473.203,330.331,472.545z M312.547,446.161c-1.114,2.827-2.923,5.112-5.429,6.855c-2.505,1.742-5.298,2.614-8.376,2.614c-4.061,0-7.508-1.463-10.341-4.389s-4.25-6.46-4.25-10.603c0-2.038,0.328-3.879,0.983-5.523c1.736,3.222,4.168,5.836,7.295,7.841s6.559,3.074,10.292,3.206H312.547z M302.329,473.433c0-0.986-0.352-1.808-1.056-2.466s-1.548-0.986-2.53-0.986c-0.95,0-1.818,0.362-2.604,1.085c-0.655,0.658-0.983,1.447-0.983,2.367v8.63c0,0.986,0.352,1.841,1.056,2.564c0.704,0.723,1.548,1.085,2.53,1.085s1.826-0.362,2.53-1.085c0.704-0.723,1.056-1.578,1.056-2.564V473.433z M279.239,463.816c0-0.953-0.336-1.759-1.007-2.416c-0.671-0.658-1.498-0.986-2.481-0.986c-1.015,0-1.834,0.312-2.456,0.937l-6.19,6.066c-0.688,0.756-1.032,1.595-1.032,2.515c0,0.986,0.352,1.833,1.056,2.54c0.704,0.707,1.564,1.06,2.579,1.06c1.081,0,1.949-0.329,2.604-0.986l5.944-6.214C278.912,465.575,279.239,464.737,279.239,463.816z M279.239,417.46c0-1.019-0.328-1.841-0.983-2.466l-5.944-6.214c-0.721-0.658-1.588-0.986-2.604-0.986c-0.983,0-1.85,0.329-2.604,0.986c-0.688,0.789-1.032,1.677-1.032,2.663c0,0.921,0.344,1.759,1.032,2.515l6.19,6.066c0.655,0.658,1.474,0.986,2.456,0.986s1.81-0.337,2.481-1.011C278.903,419.326,279.239,418.479,279.239,417.46z M269.708,440.638c0-0.986-0.328-1.825-0.983-2.515c-0.655-0.69-1.474-1.036-2.456-1.036h-8.499c-1.015,0-1.883,0.345-2.604,1.036c-0.721,0.69-1.081,1.529-1.081,2.515c0,1.019,0.36,1.882,1.081,2.589s1.588,1.06,2.604,1.06h8.499c0.983,0,1.801-0.353,2.456-1.06S269.708,441.657,269.708,440.638z"/></svg>
