<svg xmlns="http://www.w3.org/2000/svg" x="0px" y="0px" width="170.466px" height="170.466px" viewBox="226.774 350.079 170.466 170.466"><path id="f07e" d="M371.771,432.55c0-6.049-1.891-11.449-5.674-16.2c-3.783-4.751-8.556-7.8-14.321-9.148c-1.638-7.2-5.322-13.101-11.054-17.704c-5.732-4.603-12.298-6.904-19.7-6.904c-7.238,0-13.682,2.252-19.332,6.756c-5.65,4.504-9.326,10.274-11.029,17.31h-1.719c-4.716,0-9.072,1.142-13.068,3.427c-3.996,2.285-7.156,5.416-9.482,9.395c-2.325,3.978-3.488,8.334-3.488,13.069c0,6.049,1.85,11.458,5.551,16.225c-3.373,2.893-7.32,4.422-11.84,4.586l-3.439,0.296c-0.622,0-0.933,0.329-0.933,0.986v4.044c-0.033,5.326,1.245,10.241,3.832,14.745c2.587,4.504,6.116,8.063,10.587,10.677s9.342,3.921,14.615,3.921c4.028,0,7.852-0.773,11.471-2.318c3.619-1.545,6.722-3.633,9.31-6.263s4.643-5.753,6.165-9.37s2.284-7.414,2.284-11.392h36.109c7.009-0.329,12.953-3.008,17.833-8.038C369.331,445.619,371.771,439.586,371.771,432.55z M362.829,432.55c0,4.57-1.58,8.532-4.741,11.885s-6.984,5.145-11.471,5.375h-58.658c-4.487-0.23-8.311-2.022-11.471-5.375s-4.741-7.315-4.741-11.885c0-4.603,1.703-8.597,5.109-11.984c3.406-3.386,7.435-5.079,12.085-5.079h8.499c0.59,0,0.884-0.296,0.884-0.888l0.393-3.058c0.59-5.688,3.03-10.447,7.32-14.277c4.29-3.83,9.285-5.745,14.984-5.745c5.764,0,10.767,1.915,15.008,5.745c4.241,3.83,6.624,8.589,7.148,14.277l0.393,3.058c0,0.592,0.344,0.888,1.032,0.888h2.751c4.389,0.526,8.065,2.408,11.029,5.647C361.347,424.372,362.829,428.178,362.829,432.55z M302.943,458.687c0,4.175-1.048,7.981-3.144,11.417s-4.79,6.074-8.081,7.915s-6.771,2.762-10.44,2.762c-3.242,0-6.427-0.789-9.555-2.367s-5.895-3.97-8.303-7.175c-2.407-3.206-3.906-6.879-4.495-11.022c5.633-1.151,10.382-3.436,14.247-6.855c4.421,3.419,9.351,5.195,14.787,5.326H302.943z"/></svg>
