<svg xmlns="http://www.w3.org/2000/svg" x="0px" y="0px" width="170.466px" height="170.466px" viewBox="226.774 350.079 170.466 170.466"><path id="f086_1_" d="M368.921,452.646c0-6.082-1.859-11.474-5.576-16.175c-3.717-4.701-8.507-7.71-14.37-9.025c-1.212-5.425-3.66-10.167-7.345-14.227c-3.685-4.06-8.098-6.962-13.24-8.704c-3.242-1.118-6.616-1.677-10.12-1.677c-4.258,0-8.368,0.838-12.331,2.515c-1.474-2.466-3.201-4.603-5.183-6.411s-4.028-3.197-6.141-4.167c-2.112-0.97-4.168-1.685-6.165-2.145c-1.998-0.46-3.963-0.69-5.895-0.69c-1.998,0-4.143,0.279-6.436,0.838l-4.274,1.332c-0.721,0.296-0.966,0.69-0.737,1.184l0.737,3.156c0.36,1.644,0.54,3.156,0.54,4.537c0,1.644-0.254,3.304-0.761,4.981c-0.508,1.677-1.269,3.321-2.284,4.932c-1.015,1.611-2.407,3.074-4.176,4.389s-3.783,2.318-6.043,3.008l-3.242,1.134c-0.524,0.132-0.786,0.411-0.786,0.838c0,0.099,0.033,0.214,0.098,0.345l0.933,3.551c1.441,5.655,4.061,10.159,7.86,13.512c-2.096,3.682-3.226,7.611-3.39,11.786c-0.033,0.263-0.049,0.658-0.049,1.184c0,4.701,1.163,9.049,3.488,13.044c2.325,3.995,5.478,7.159,9.457,9.493s8.311,3.501,12.994,3.501h56.644c4.683,0,9.007-1.167,12.97-3.501c3.963-2.334,7.091-5.499,9.383-9.493S368.921,457.348,368.921,452.646z M359.98,452.646c0,4.669-1.67,8.712-5.011,12.132c-3.341,3.419-7.287,5.129-11.84,5.129h-56.644c-4.651,0-8.638-1.693-11.962-5.079c-3.324-3.386-4.986-7.447-4.986-12.181c0-4.603,1.67-8.573,5.011-11.91c3.341-3.337,7.32-5.006,11.938-5.006h9.334l0.54-3.945c0.524-5.326,2.718-9.871,6.583-13.636c3.865-3.764,8.466-5.86,13.805-6.288c0.164,0,0.418-0.016,0.761-0.049c0.344-0.033,0.598-0.049,0.761-0.049c2.653,0,5.339,0.51,8.057,1.529v-0.099c3.832,1.479,7.05,3.879,9.654,7.2s4.168,7.118,4.692,11.392l0.344,3.797l3.586,0.148c4.421,0.526,8.09,2.384,11.005,5.573S359.98,448.274,359.98,452.646z M298.423,409.989c-5.568,4.767-9.007,10.34-10.317,16.718h-1.67c-6.518,0-12.053,2.071-16.605,6.214c-1.736-1.644-3.062-3.518-3.979-5.622c4.782-2.268,8.548-5.721,11.299-10.356c2.751-4.636,4.127-9.518,4.127-14.647v-1.282c0.262-0.033,0.688-0.049,1.277-0.049c3.046-0.066,6.01,0.699,8.892,2.293S296.655,407.095,298.423,409.989z"/></svg>
