<svg xmlns="http://www.w3.org/2000/svg" x="0px" y="0px" width="170.466px" height="170.466px" viewBox="226.774 350.079 170.466 170.466"><path id="f0b6" d="M367.693,446.852c0-1.249-0.442-2.318-1.326-3.206c-0.95-0.888-1.998-1.332-3.144-1.332h-10.71c-1.212,0-2.219,0.444-3.021,1.332c-0.802,0.888-1.204,1.956-1.204,3.206s0.401,2.31,1.204,3.181c0.802,0.871,1.81,1.307,3.021,1.307h10.71c1.212,0,2.26-0.444,3.144-1.332C367.251,449.12,367.693,448.068,367.693,446.852z M352.709,410.506c0-1.216-0.409-2.285-1.228-3.206c-1.048-0.888-2.162-1.332-3.341-1.332c-1.114,0-2.145,0.444-3.095,1.332l-7.467,7.693c-0.852,0.789-1.277,1.825-1.277,3.107c0,1.249,0.418,2.293,1.253,3.132c0.835,0.838,1.875,1.258,3.12,1.258c1.277,0,2.309-0.427,3.095-1.282l7.713-7.496C352.3,412.824,352.709,411.756,352.709,410.506z M351.874,459.476c0-1.184-0.409-2.153-1.228-2.91s-1.932-1.134-3.341-1.134h-29.919c-1.408,0-2.53,0.378-3.365,1.134c-0.835,0.756-1.253,1.726-1.253,2.91c0,1.414,0.409,2.54,1.228,3.378c0.819,0.838,1.949,1.258,3.39,1.258h29.919c1.408,0,2.522-0.411,3.341-1.233S351.874,460.923,351.874,459.476z M346.715,475.011c0-1.151-0.483-2.203-1.449-3.156c-0.966-0.953-2.022-1.43-3.169-1.43c-1.376,0-2.481,0.46-3.316,1.381c-0.835,0.921-1.253,1.989-1.253,3.206c0,1.447,0.409,2.581,1.228,3.403s1.932,1.233,3.341,1.233c1.212,0,2.284-0.427,3.218-1.282C346.249,477.509,346.715,476.392,346.715,475.011z M339.297,448.381v-0.345c-0.164-6.608-2.448-12.362-6.853-17.26c-4.405-4.899-9.817-7.858-16.237-8.877h-0.098h-0.147c-1.015-0.197-2.342-0.296-3.979-0.296s-2.964,0.099-3.979,0.296h-0.098h-0.098c-6.419,1.019-11.832,3.978-16.237,8.877c-4.405,4.899-6.69,10.652-6.853,17.26v0.345c0,0.855,0.393,1.282,1.179,1.282h5.944c0.622,0,1.064-0.164,1.326-0.493c0.262-0.329,0.393-0.641,0.393-0.937c0.197-4.899,2.08-9.049,5.65-12.452s7.828-5.104,12.773-5.104c4.945,0,9.203,1.701,12.773,5.104s5.453,7.553,5.65,12.452c0,0.296,0.139,0.608,0.418,0.937c0.278,0.329,0.729,0.493,1.351,0.493h5.944C338.904,449.663,339.297,449.235,339.297,448.381z M334.041,475.011c0-1.216-0.418-2.285-1.253-3.206c-0.835-0.921-1.941-1.381-3.316-1.381h-20.093c-1.146,0-2.203,0.477-3.169,1.43s-1.449,2.005-1.449,3.156c0,1.381,0.467,2.499,1.4,3.353s2.006,1.282,3.218,1.282h20.093c1.408,0,2.522-0.411,3.341-1.233S334.041,476.457,334.041,475.011z M316.502,406.216v-10.701c0-1.249-0.442-2.318-1.326-3.206c-0.884-0.888-1.932-1.332-3.144-1.332c-1.212,0-2.26,0.444-3.144,1.332c-0.884,0.888-1.326,1.956-1.326,3.206v10.701c0,1.216,0.434,2.236,1.302,3.058c0.868,0.822,1.924,1.233,3.169,1.233s2.301-0.411,3.169-1.233S316.502,407.432,316.502,406.216z M309.379,459.476c0-1.118-0.475-2.071-1.425-2.86c-0.95-0.789-2.014-1.184-3.193-1.184s-2.243,0.395-3.193,1.184c-0.95,0.789-1.425,1.742-1.425,2.86c0,1.381,0.467,2.499,1.4,3.353c0.933,0.855,2.006,1.282,3.218,1.282c1.212,0,2.284-0.427,3.218-1.282S309.379,460.857,309.379,459.476z M301.322,475.011c0-1.216-0.426-2.285-1.277-3.206c-0.852-0.921-1.965-1.381-3.341-1.381h-9.727c-1.376,0-2.481,0.46-3.316,1.381c-0.835,0.921-1.253,1.989-1.253,3.206c0,1.447,0.401,2.581,1.204,3.403c0.802,0.822,1.924,1.233,3.365,1.233h9.727c1.408,0,2.53-0.411,3.365-1.233C300.904,477.592,301.322,476.457,301.322,475.011z M296.704,459.476c0-1.118-0.467-2.071-1.4-2.86c-0.933-0.789-1.99-1.184-3.169-1.184H276.07c-1.146,0-2.096,0.386-2.849,1.159s-1.13,1.734-1.13,2.885c0,1.414,0.368,2.54,1.105,3.378c0.737,0.838,1.695,1.258,2.874,1.258h16.065c1.212,0,2.276-0.427,3.193-1.282C296.245,461.975,296.704,460.857,296.704,459.476z M287.566,418.101c0-1.315-0.393-2.351-1.179-3.107l-7.467-7.693c-0.95-0.888-1.981-1.332-3.095-1.332c-1.212,0-2.26,0.444-3.144,1.332c-0.884,0.888-1.326,1.956-1.326,3.206c0,1.282,0.426,2.351,1.277,3.206l7.664,7.496c0.95,0.855,1.998,1.282,3.144,1.282c1.179,0,2.162-0.419,2.948-1.258C287.173,420.394,287.566,419.35,287.566,418.101z M275.726,446.852c0-1.216-0.426-2.285-1.277-3.206c-0.884-0.888-1.883-1.332-2.997-1.332h-10.612c-1.212,0-2.268,0.452-3.169,1.356s-1.351,1.964-1.351,3.181c0,1.216,0.45,2.269,1.351,3.156s1.957,1.332,3.169,1.332h10.612c1.212,0,2.227-0.436,3.046-1.307S275.726,448.101,275.726,446.852z"/></svg>
