<svg xmlns="http://www.w3.org/2000/svg" x="0px" y="0px" width="170.466px" height="170.466px" viewBox="226.774 350.079 170.466 170.466"><path id="f0c7" d="M351.947,475.331c0-1.578-0.508-2.918-1.523-4.019c-1.015-1.101-2.243-1.652-3.685-1.652v-0.099l-68.975,0.197c-0.328-0.066-0.508-0.099-0.54-0.099c-1.441,0.033-2.669,0.608-3.685,1.726c-1.015,1.118-1.507,2.466-1.474,4.044c0,1.578,0.508,2.91,1.523,3.995c1.015,1.085,2.243,1.627,3.685,1.627v0.049l68.336-0.148c0.524,0.066,0.917,0.099,1.179,0.099c1.441-0.033,2.669-0.6,3.685-1.701S351.98,476.909,351.947,475.331z M347.624,446.581c0.066-2.236-0.213-4.899-0.835-7.989c-0.295-1.578-1.064-3.978-2.309-7.2c-0.131-0.263-0.36-0.756-0.688-1.479c-0.066,0.099-0.131,0.181-0.197,0.247c-0.066,0.066-0.098,0.115-0.098,0.148c-0.557,2.334-1.408,4.438-2.555,6.312c-1.081,1.71-2.505,2.926-4.274,3.649c-1.376,0.559-3.292,0.871-5.748,0.937c-0.098,0-0.237,0.008-0.418,0.025c-0.18,0.016-0.319,0.025-0.418,0.025c1.736-1.742,3.111-3.501,4.127-5.277c1.572-2.729,2.571-5.901,2.997-9.518c0.328-2.827,0.164-6.263-0.491-10.307c-0.131-0.789-0.639-2.564-1.523-5.326c-0.786-2.466-1.9-4.718-3.341-6.756c-1.703-2.564-4.143-5.211-7.32-7.94c-1.932-1.644-4.651-3.518-8.155-5.622c-0.36-0.23-0.966-0.559-1.818-0.986c0,0.099,0.008,0.189,0.025,0.271c0.016,0.082,0.025,0.148,0.025,0.197v0.123c1.277,3.025,2.129,6.066,2.555,9.123c0.328,2.762-0.098,5.359-1.277,7.792c-0.884,1.907-2.489,3.929-4.814,6.066c-0.491,0.493-1.531,1.504-3.12,3.033s-2.808,2.721-3.66,3.575l-1.326,1.332c-1.376-2.005-2.145-4.373-2.309-7.101c-0.229-2.893,0.016-6.049,0.737-9.469c0-0.033-0.016-0.23-0.049-0.592c-0.131,0.099-0.655,0.526-1.572,1.282c-2.915,2.63-5.158,4.981-6.73,7.052c-2.522,3.288-4.372,6.345-5.551,9.173c-0.983,2.4-1.638,4.849-1.965,7.348c-0.295,2.236-0.426,4.077-0.393,5.523c0.066,4.11,0.508,7.545,1.326,10.307c0.36,1.118,0.688,2.022,0.983,2.712c-1.31-0.362-2.44-0.822-3.39-1.381c-1.31-0.822-2.358-1.973-3.144-3.452c-0.852-1.512-1.523-3.238-2.014-5.178c0-0.066-0.049-0.148-0.147-0.247c-0.033,0.099-0.115,0.255-0.246,0.469c-0.131,0.214-0.213,0.386-0.246,0.518c-0.655,1.644-1.13,3.337-1.425,5.079c-0.393,1.973-0.524,3.962-0.393,5.967c0.098,1.512,0.377,2.926,0.835,4.241c0.426,1.249,0.819,2.268,1.179,3.058c0.983,2.005,2.063,3.715,3.242,5.129c0.328,0.395,0.573,0.674,0.737,0.838h57.528c0.066-0.066,0.18-0.164,0.344-0.296c0.164-0.132,0.295-0.247,0.393-0.345c1.408-1.348,2.849-3.337,4.323-5.967c0.426-0.789,0.933-2.005,1.523-3.649C347.166,450.411,347.526,448.586,347.624,446.581z"/></svg>
