<svg xmlns="http://www.w3.org/2000/svg"><path d="M0 530q0 -214 149 -367.5t363 -163.5q19 0 19 18v143q0 19 -19 19q-137 7 -233.5 109.5t-96.5 241.5q0 133 90.5 231t224.5 114l57 4q21 0 21 19l7 59q17 173 146.5 289.5t305.5 116.5q174 0 305.5 -116.5t149.5 -289.5l8 -62q0 -20 18 -20h173q143 0 247.5 -102.5 t104.5 -242.5q0 -139 -97 -241.5t-234 -109.5q-21 0 -21 -19v-143q0 -18 21 -18q214 7 362 161.5t148 369.5q0 119 -44 214q126 154 126 355q0 151 -76 280.5t-205.5 205.5t-280.5 76q-250 0 -416 -187q-128 70 -289 70q-226 0 -401.5 -140t-225.5 -359q-177 -42 -292 -186 t-115 -329zM569 -223q16 -35 49 -48q32 -16 67.5 -2.5t47.5 47.5q16 35 2.5 69t-47.5 47q-32 17 -66.5 3t-50.5 -50q-15 -27 -2 -66zM638 80q0 -22 10 -41q31 -49 95 -49q51 0 74 69l111 343q13 39 -7.5 71.5t-58.5 39.5q-35 11 -67.5 -6.5t-43.5 -53.5l-110 -344 q-3 -15 -3 -29zM837 -519q0 -21 5 -31q14 -35 48 -48q15 -8 37 -8q10 0 32 6q35 13 50.5 48.5t-0.5 70.5t-48 48.5t-66 -0.5q-31 -12 -44.5 -37.5t-13.5 -48.5zM902 1843q0 -40 26 -64l69 -69q26 -26 58 -29q33 -5 65.5 24.5t32.5 68.5q0 38 -26 64l-68 68q-30 27 -66 27 q-39 0 -65 -26t-26 -64zM915 -232q0 -26 17 -51t51 -35q18 -4 26 -4q24 0 41 8q32 13 46 61l192 655q11 38 -6 69.5t-53 41.5q-38 11 -70.5 -6t-43.5 -54l-196 -660q-4 -20 -4 -25zM1283 -191q0 -20 7 -33q14 -33 48 -47q17 -8 37 -8q10 0 32 6q36 14 49 47q13 35 0 67.5 t-45 48.5q-36 17 -70 3t-51 -50q-7 -13 -7 -34zM1360 83q0 -25 16.5 -48.5t49.5 -33.5q14 -3 27 -3q62 0 84 65l110 339q12 37 -7 69t-55 42q-38 11 -68.5 -6t-42.5 -54l-109 -341q-5 -22 -5 -29zM1474 1371q107 103 265 103q156 0 267 -109.5t111 -265.5q0 -100 -55 -197 q-153 154 -374 154h-33q-47 185 -181 315zM1647 1933q0 -38 27 -65t65 -27q37 0 62.5 27t25.5 65v220q0 38 -25.5 65t-62.5 27q-38 0 -65 -27t-27 -65v-220zM2239 1689q0 -39 27 -64q24 -28 61.5 -27.5t64.5 27.5l154 154q29 24 29 64q0 38 -27.5 65t-65.5 27q-35 0 -61 -29 l-155 -153q-27 -25 -27 -64zM2325 419q0 -36 26 -64l70 -67q23 -29 64 -29q38 0 61 29q29 26 29 64t-29 65l-69 66q-25 28 -62 28t-63.5 -27t-26.5 -65zM2481 1099q0 -38 28 -64q28 -28 66 -28h217q38 0 65.5 27t27.5 65q0 37 -27 62.5t-66 25.5h-217q-40 0 -67 -25.5 t-27 -62.5z"/></svg>
