<svg xmlns="http://www.w3.org/2000/svg"><path d="M0 87q0 39 27 65t67 26h957q38 0 63 -25.5t25 -65.5q0 -38 -25.5 -63.5t-62.5 -25.5h-957q-40 0 -67 25.5t-27 63.5zM281 413q0 38 29 64q23 24 63 24h960q37 0 61.5 -25t24.5 -63t-24.5 -65t-61.5 -27h-960q-37 0 -64.5 27.5t-27.5 64.5zM347 662q0 -15 18 -15h152 q15 0 25 15q36 87 111 144t168 64l58 7q18 0 18 19l7 55q18 174 148.5 290t306.5 116q174 0 302 -114.5t150 -288.5l8 -63q0 -17 19 -17h171q145 0 247.5 -102t102.5 -247q0 -140 -104 -243.5t-246 -103.5h-735q-19 0 -19 -18v-143q0 -19 19 -19h735q108 0 206.5 41.5 t169 112.5t112.5 168.5t42 204.5q0 144 -70.5 265.5t-192.5 192t-267 70.5h-33q-52 215 -224.5 351.5t-392.5 136.5q-227 0 -401.5 -141.5t-221.5 -361.5q-138 -31 -242 -129.5t-145 -236.5v-2q-2 -4 -2 -8zM469 -243q0 39 28 64q24 25 63 25h959q39 0 65.5 -25.5 t26.5 -63.5t-27 -65t-65 -27h-959q-37 0 -64 27t-27 65z"/></svg>
