<svg xmlns="http://www.w3.org/2000/svg"><path d="M0 86q0 39 27 65t67 26h1991q40 0 65.5 -25.5t25.5 -65.5q0 -37 -26.5 -62t-64.5 -25h-1991q-40 0 -67 25t-27 62zM279 421q0 39 28 64q24 24 63 24h1992q37 0 62 -25.5t25 -62.5q0 -38 -25 -64.5t-62 -26.5h-1992q-38 0 -64.5 27t-26.5 64zM293 675q0 -14 16 -14h153 q10 0 21 17q38 83 113.5 136t165.5 60l59 8q18 0 18 19l7 53q17 173 146.5 288.5t303.5 115.5q173 0 301.5 -114t146.5 -286l8 -61q0 -18 21 -18h170q103 0 187.5 -55t125.5 -146q11 -17 22 -17h153q19 0 15 24q-47 164 -186 268t-317 104h-34q-53 213 -223.5 348.5 t-389.5 135.5q-224 0 -398 -140.5t-223 -358.5q-136 -32 -238.5 -129t-142.5 -232v4q-1 -3 -1 -10zM465 -241q0 38 28 63q24 24 64 24h1993q38 0 64.5 -25t26.5 -62q0 -38 -27 -65t-64 -27h-1993q-37 0 -64.5 27.5t-27.5 64.5z"/></svg>
