<svg xmlns="http://www.w3.org/2000/svg"><path d="M0 525q0 185 116 329t297 185q47 220 221 361.5t400 141.5q223 0 396.5 -136t226.5 -352h36q144 0 265 -70.5t190.5 -192.5t69.5 -266q0 -214 -146.5 -367t-359.5 -160q-19 0 -19 18v143q0 18 19 18q135 11 231 111.5t96 236.5q0 143 -102 246t-244 103h-174 q-19 0 -23 19l-8 61q-11 114 -74.5 206.5t-163.5 145t-216 52.5q-176 0 -305.5 -116.5t-146.5 -290.5l-7 -58q0 -15 -17 -15l-56 -8q-135 -11 -225.5 -110t-90.5 -235q0 -139 94.5 -239.5t231.5 -108.5q19 0 19 -18v-143q0 -18 -19 -18q-105 5 -200 48t-163.5 113 t-108.5 165.5t-40 200.5zM578 -197q0 5 2 14t2 12l29 110q11 36 42.5 54.5t68.5 7.5q36 -11 55 -42.5t8 -68.5l-26 -108q-21 -70 -81 -70q-4 0 -9.5 0.5t-12 1.5t-10.5 1q-34 10 -51 36.5t-17 51.5zM719 317q0 4 1.5 12t1.5 10l32 112q10 31 34 47.5t50 16.5q4 0 8.5 -0.5 t10 -1.5t8.5 -1q36 -11 54.5 -42.5t7.5 -68.5l-26 -107q-11 -44 -43 -62.5t-69 -2.5q-35 10 -52.5 36t-17.5 52zM850 -531q0 5 2 13.5t2 12.5l31 106q10 38 42.5 57.5t69.5 8.5q36 -11 54 -43.5t7 -69.5l-27 -111q-17 -65 -85 -65q-8 0 -26 4q-35 6 -52.5 32.5t-17.5 54.5z M993 -22q0 9 4 27l29 110q11 36 43.5 54.5t69.5 7.5q36 -10 54 -41.5t6 -69.5l-26 -106q-20 -72 -77 -72q-7 0 -33 6q-35 7 -52.5 31.5t-17.5 52.5zM1294 -201q0 11 3 26l30 106q11 38 43.5 57.5t67.5 9.5q37 -11 56.5 -43.5t9.5 -67.5l-31 -113q-16 -65 -84 -65 q-15 0 -28 3q-32 6 -49 32.5t-18 54.5zM1441 307q0 5 5 28l32 110q6 34 31 50.5t52 14.5q7 1 26 -3q35 -8 55 -41q19 -27 8 -69l-26 -110q-21 -69 -81 -69q-10 0 -36 6q-33 10 -49.5 33.5t-16.5 49.5z"/></svg>
