<svg xmlns="http://www.w3.org/2000/svg"><path d="M0 718q0 -71 74 -121q135 -95 408 -95q123 0 228 21q111 24 181 75t70 120q0 21 -8 42q142 35 223 94.5t81 136.5q0 19 -6 41q234 83 234 224q0 90 -102 160q-200 133 -586 133q-182 0 -330 -32q-159 -32 -257.5 -102t-98.5 -159q0 -53 33 -97q-121 -69 -121 -168 q0 -77 75 -135q-98 -57 -98 -138zM41 411q0 -75 92.5 -117.5t232.5 -42.5q142 0 235 42.5t93 117.5q0 28 -18 47t-46 19q-23 0 -41 -16t-23 -39q-20 -16 -75 -29.5t-125 -13.5q-113 0 -183 32q16 16 17.5 41t-10.5 42q-16 22 -41.5 27t-47.5 -9q-60 -40 -60 -101zM128 718 q0 1 13 12q9 9 38.5 23t65.5 24l8 4q166 -55 387 -55q97 0 176 11l18 -16q-9 -16 -43 -34q-41 -22 -127 -39t-182 -17t-182.5 17t-128.5 39q-34 15 -43 31zM136 143q0 -65 73.5 -100t182.5 -35q111 0 186 35t75 100q0 26 -19 46t-45 20q-48 0 -63 -49q-40 -25 -134 -25 q-82 0 -131 25q-15 49 -63 49q-26 0 -44 -19t-18 -47zM150 991q0 8 10 19q25 31 97 60q197 -105 540 -105q175 0 329 32v-6q0 -15 -19 -31q-42 -37 -156 -70q-124 -37 -311 -37q-188 0 -312 37q-119 33 -159 70q-19 15 -19 31zM239 1256q0 18 24 40q46 43 183 83 q146 43 351 43q206 0 354 -43q138 -40 183 -83q23 -23 23 -40t-23 -38q-45 -43 -183 -84q-148 -43 -354 -43q-205 0 -351 43q-138 40 -183 84q-24 21 -24 38z"/></svg>
