<svg xmlns="http://www.w3.org/2000/svg"><path d="M0 523q0 185 113.5 328.5t292.5 187.5q50 218 224.5 358t400.5 140q220 0 392.5 -136.5t224.5 -350.5h34q143 0 265 -70.5t193 -192t71 -264.5q0 -212 -148 -365t-360 -160q-21 0 -21 18v142q0 19 21 19q136 7 232.5 108.5t96.5 237.5q0 142 -103 245t-247 103h-172 q-19 0 -19 18l-8 62q-18 173 -148.5 290t-303.5 117q-176 0 -305.5 -118t-146.5 -293l-6 -53q0 -20 -21 -20l-56 -7q-133 -11 -223.5 -110.5t-90.5 -233.5q0 -136 96.5 -237.5t232.5 -108.5q18 0 18 -19v-142q0 -18 -18 -18q-214 7 -362.5 160t-148.5 365zM587 -298 q0 37 27 64q26 24 61 24q37 0 62.5 -25t25.5 -63t-25.5 -63t-62.5 -25t-62.5 25t-25.5 63zM679 89q0 36 25.5 62t62.5 26t62.5 -26t25.5 -62q0 -38 -25.5 -64.5t-62.5 -26.5t-62.5 26.5t-25.5 64.5zM882 -507q0 36 27 65q26 26 61 26q38 0 65 -27t27 -64t-27 -62.5 t-65 -25.5q-36 0 -62 25.5t-26 62.5zM974 -117q0 38 26 66q26 26 62 26q37 0 64 -27t27 -65q0 -37 -26.5 -63.5t-64.5 -26.5q-36 0 -62 26.5t-26 63.5zM1019 269q0 37 27 64q28 26 61 26q38 0 65 -26.5t27 -63.5t-27 -62.5t-65 -25.5q-36 0 -62 25.5t-26 62.5zM1272 -298 q0 36 26 64q26 24 64 24t63 -25t25 -63t-25 -63t-63 -25t-64 25.5t-26 62.5zM1363 89q0 35 27 61.5t64 26.5t62.5 -26t25.5 -62q0 -38 -25.5 -64.5t-62.5 -26.5q-38 0 -64.5 27t-26.5 64z"/></svg>
