<svg xmlns="http://www.w3.org/2000/svg"><path d="M3 781v2q-1 13 0.5 39t10.5 86t26.5 123t54.5 144t87.5 154t133.5 148.5t185 132.5q25 14 52.5 6t40.5 -33q14 -25 6.5 -53t-32.5 -42q-210 -115 -323 -325q86 40 174 40q172 0 295 -122.5t123 -294.5q0 -13 -0.5 -25.5t-4.5 -55t-12 -82t-25 -99t-40.5 -113t-62 -117.5 t-86 -119.5t-115.5 -112t-148 -101.5q-15 -9 -33 -9q-41 0 -62 37q-14 25 -6 52.5t33 40.5q215 120 326 329q-87 -41 -182 -41q-111 0 -206.5 55t-152 150t-57.5 206zM184 786q0 -98 69 -167t166 -69q91 0 158.5 60.5t77.5 150.5l1 24q0 4 1 5q-1 96 -70.5 162.5 t-167.5 66.5q-89 0 -155.5 -58t-77.5 -145l-2 -27v-3z"/></svg>
