<svg xmlns="http://www.w3.org/2000/svg"><path d="M118 673q-180 384 55 724q164 237 505 290q26 7 58 9h67q466 -14 683 -414q102 -189 51 -417q-41 -181 -137 -338q-207 -322 -427 -520q-12 -12 -32 -28q-74 -56 -136.5 -58t-139.5 48q-46 27 -79 63q-314 320 -468 641zM130 909q3 -17 10 -47t10 -43q45 -201 185 -312.5 t348 -131.5q46 -5 54.5 3.5t9.5 55.5q-2 13 -5 41.5t-6 41.5q-40 215 -203 313q-29 18 -66.5 36t-65 29t-73.5 28.5t-67 26.5q-25 10 -85 12q-55 0 -46 -53zM855 440q-4 -49 6.5 -59.5t58.5 -4.5q61 7 128 23q171 43 280 182q54 66 82.5 143t50.5 183q8 36 -3.5 49.5 t-46.5 8.5q-94 -16 -170 -43q-184 -69 -280 -185.5t-106 -296.5z"/></svg>
