<svg xmlns="http://www.w3.org/2000/svg"><path d="M0 794q0 31 21 53t51 22q31 0 52 -22t21 -53q0 -30 -21.5 -51t-51.5 -21t-51 21.5t-21 50.5zM211 794q0 31 21 53t51 22h344l-243 243q-22 20 -22 50.5t22 52.5t52 22t52 -22l242 -242v342q0 31 22 53t53 22q30 0 51 -22t21 -53v-345l244 245q22 22 51.5 22t52.5 -22 q19 -22 19 -52.5t-19 -50.5l-243 -243h344q29 0 50.5 -22t21.5 -53q0 -29 -21.5 -50.5t-50.5 -21.5h-345l244 -244q19 -20 19 -50t-19 -52q-23 -22 -52.5 -22t-51.5 22l-244 245v-346q0 -31 -21 -52.5t-51 -21.5q-31 0 -53 21.5t-22 52.5v343l-242 -242q-22 -22 -52 -22 t-52 22t-22 52t22 50l245 244h-346q-30 0 -51 21.5t-21 50.5zM213 277.5q0 29.5 22 51.5q20 22 50.5 22t52.5 -22t22 -51.5t-22 -51.5t-52.5 -22t-50.5 22q-22 22 -22 51.5zM213 1313.5q0 29.5 22 51.5q20 22 50.5 22t52.5 -22t22 -51.5t-22 -52.5q-22 -22 -52.5 -22 t-50.5 22q-22 23 -22 52.5zM730 64q0 29 22 50.5t53 21.5q30 0 51 -21.5t21 -50.5q0 -31 -21 -52.5t-51 -21.5q-31 0 -53 21.5t-22 52.5zM730 1527q0 31 22 52.5t53 21.5q30 0 51 -21.5t21 -52.5q0 -29 -21 -50.5t-51 -21.5q-31 0 -53 21.5t-22 50.5zM1249 277.5 q0 29.5 22 51.5q20 22 50.5 22t52.5 -22t22 -51.5t-22 -51.5t-52.5 -22t-50.5 22q-22 22 -22 51.5zM1249 1313.5q0 29.5 22 51.5q20 22 50.5 22t52.5 -22t22 -51.5t-22 -52.5q-22 -22 -52.5 -22t-50.5 22q-22 23 -22 52.5zM1463 794q0 31 21.5 53t52.5 22q29 0 50.5 -22 t21.5 -53q0 -29 -21.5 -50.5t-50.5 -21.5q-31 0 -52.5 21.5t-21.5 50.5z"/></svg>
