<svg xmlns="http://www.w3.org/2000/svg"><path d="M-1 899q0 184 115.5 328.5t291.5 185.5q50 219 225 359t401 140q221 0 393.5 -137t224.5 -351h35q144 0 266 -69.5t193 -190.5t71 -265q0 -184 -113 -329q103 -88 241 -93l70 -6q19 0 19 -20v-82q1 -162 -78 -299t-215.5 -216.5t-297.5 -79.5q-123 0 -233.5 47 t-189.5 127t-125.5 190t-46.5 231h-735q-214 10 -363 163t-149 367zM181 899q0 -139 96.5 -241t233.5 -109h1194q137 7 233.5 109t96.5 241q0 140 -104 243t-246 103h-173q-18 0 -18 18l-8 62q-18 173 -149 289.5t-305 116.5q-176 0 -305.5 -116.5t-145.5 -289.5l-8 -62 q0 -18 -21 -18h-56q-134 -16 -224.5 -114.5t-90.5 -231.5zM1400 369q0 -127 64 -231.5t164.5 -160.5t212.5 -56q99 0 194.5 48t169 145.5t91.5 223.5q-172 35 -290 139q-135 -104 -301 -108h-305z"/></svg>
