<svg xmlns="http://www.w3.org/2000/svg"><path d="M0 523q0 185 115.5 330t292.5 186q49 219 224.5 359.5t402.5 140.5q130 0 235 -43q0 -1 1 -2q134 -52 236 -165h3q108 -117 146 -279h33q173 0 302 -92v1q85 -57 142.5 -142t77.5 -186q6 -34 8 -55v-1v-5q0 -1 1.5 -18t1.5 -26v-1v-2q0 -141 -68 -261.5t-185.5 -193 t-258.5 -76.5q-21 0 -21 18v143q0 20 21 20q137 7 232.5 109t95.5 241q0 142 -103 244.5t-246 102.5h-172q-19 0 -19 18l-8 63q-16 160 -135 276q-1 1 -2.5 3t-2.5 3q-2 2 -4 2q0 3 -2 3q-116 106 -273 120q-11 1 -36 1q-176 0 -305.5 -117.5t-146.5 -290.5l-8 -63 q-5 -15 -24 -15l-54 -3q-135 -16 -225 -114t-90 -233v-4h3q1 -76 32.5 -144t85.5 -116q33 -29 79 -51v-1q64 -31 129 -34q18 0 18 -19v-143q0 -18 -18 -18q-83 5 -158 32v-1q-133 46 -225.5 153t-118.5 246v3q-1 1 -1 4q-8 41 -8 93zM587 -242q0 5 2 13.5t2 12.5l10 63 q11 38 43.5 56.5t72.5 8.5q36 -11 54 -44t7 -67l-15 -64q-16 -70 -81 -70q-5 0 -14.5 2t-14.5 2q-33 10 -49.5 35t-16.5 52zM666 72q0 38 25 63t63 25t63 -25t25 -63q0 -37 -25 -62t-63 -25q-37 0 -61 26q-27 25 -27 61zM841 -567q0 6 4 24l14 63q11 36 44 54.5t67 7.5 q37 -7 56 -39t9 -73l-14 -63q-16 -65 -85 -65q-12 0 -26 3q-35 10 -52 35.5t-17 52.5zM925 -257q0 37 25 62t63 25t63 -25t25 -62q0 -38 -25 -63t-63 -25q-36 0 -62 26t-26 62zM991 -15q0 16 3 29l24 96q11 37 44 56.5t68 8.5q38 -11 56.5 -43t7.5 -67l-28 -96 q-13 -44 -44 -60t-68 -6q-32 6 -48.5 32t-14.5 50zM1286 -243q0 5 1.5 14t1.5 12l10 63q11 38 43.5 56.5t72.5 8.5q36 -11 54.5 -44t7.5 -67l-15 -64q-16 -70 -81 -70q-5 0 -15 2t-15 2q-32 10 -48.5 35t-16.5 52zM1365 71q0 38 25 63t63 25t63 -25t25 -63q0 -37 -25 -62 t-63 -25t-62 26q-26 24 -26 61z"/></svg>
