<svg xmlns="http://www.w3.org/2000/svg"><path d="M0 665q0 38 27 65q29 27 64 27h218q37 0 61.5 -27t24.5 -65t-24.5 -64.5t-61.5 -26.5h-218q-37 0 -64 27t-27 64zM305 1402q0 37 25 65q32 27 68 27q34 0 63 -27l152 -156q26 -24 26 -63q0 -38 -25.5 -63.5t-63.5 -25.5q-39 0 -63 26l-157 152q-25 27 -25 65zM322 409 q0 36 25 59t68 23h609q43 0 68.5 -23t25.5 -59q0 -43 -25 -68.5t-69 -25.5h-609q-43 0 -68 25t-25 69zM427 94q0 35 29.5 64t64.5 29q42 0 67.5 -28t25.5 -65q0 -44 -25 -69t-68 -25q-37 0 -65.5 26t-28.5 68zM578 634v7q5 201 139.5 350t330.5 180h2h3q31 6 81 6t81 -6h2h2 q196 -31 330.5 -180t139.5 -350v-7q0 -26 -24 -26h-121q-19 0 -27 10t-8 19q-6 149 -115 252.5t-260 103.5t-260 -103.5t-115 -252.5q0 -9 -8.5 -19t-27.5 -10h-121q-24 0 -24 26zM685 94q0 37 25.5 65t67.5 28h409q35 0 64.5 -29t29.5 -64q0 -42 -28.5 -68t-65.5 -26h-409 q-43 0 -68 25t-25 69zM1042 1489v217q0 38 27 65t64 27t64 -27t27 -65v-217q0 -37 -26.5 -62t-64.5 -25t-64.5 25t-26.5 62zM1187 409q0 34 29 58t65 24t65 -24t29 -58q0 -42 -28.5 -68t-65.5 -26t-65.5 26t-28.5 68zM1351 94q0 37 26 65t68 28h198q42 0 67.5 -28t25.5 -65 q0 -44 -24.5 -69t-68.5 -25h-198q-43 0 -68.5 25t-25.5 69zM1445 409q0 34 28.5 58t64.5 24h327q35 0 58 -23.5t23 -58.5q0 -43 -22.5 -68.5t-58.5 -25.5h-327q-37 0 -65 26t-28 68zM1631 1248q0 40 24 63l152 156q29 27 63 27q37 0 64 -27t27 -65q0 -39 -26 -65l-156 -152 q-29 -26 -64 -26q-36 0 -60 25.5t-24 63.5zM1872 665q0 37 26 65q27 27 61 27h216q37 0 64.5 -27.5t27.5 -64.5t-27.5 -64t-64.5 -27h-216q-37 0 -62 26.5t-25 64.5z"/></svg>
