<svg xmlns="http://www.w3.org/2000/svg"><path d="M1 2q0 48 31 81.5t75 33.5v2l1404 -4q10 2 11 2q44 -1 75 -35t30 -82q0 -48 -31 -81t-75 -33v-1l-1391 3q-16 -2 -24 -2q-44 1 -75 34.5t-30 81.5zM89 585q-2 68 17 162q9 48 47 146q4 8 14 30q2 -3 4 -5t2 -3q17 -71 52 -128q33 -52 87 -74q42 -17 117 -19q3 0 8.5 -0.5 t8.5 -0.5q-53 53 -84 107q-48 83 -61 193q-10 86 10 209q4 24 31 108q24 75 68 137q52 78 149 161q59 50 166 114q11 7 37 20q0 -3 -0.5 -5.5t-0.5 -4v-2.5q-39 -92 -52 -185q-10 -84 26 -158q27 -58 98 -123q15 -15 63.5 -61.5t74.5 -72.5l27 -27q42 61 47 144 q7 88 -15 192q0 1 1 12q4 -3 32 -26q89 -80 137 -143q77 -100 113 -186q30 -73 40 -149q9 -68 8 -112q-2 -125 -27 -209q-11 -34 -20 -55q40 11 69 28q40 25 64 70q26 46 41 105q0 2 3 5q1 -3 5 -9.5t5 -10.5q20 -50 29 -103q12 -60 8 -121q-3 -46 -17 -86q-13 -38 -24 -62 q-30 -61 -66 -104q-10 -12 -15 -17h-1171q-2 2 -7 6t-8 7q-43 41 -88 121q-13 24 -31 74q-19 50 -22 111z"/></svg>
